<svg xmlns="http://www.w3.org/2000/svg" width="63.494" height="58.18" viewBox="0 0 63.494 58.18">
  <g id="Grupo_42504" data-name="Grupo 42504" transform="translate(-965.47 686.594)">
    <path id="Trazado_46048" data-name="Trazado 46048" d="M1028.854-657.758a5.234,5.234,0,0,0-2.749-4.728l-2.947-1.6v-2.931c.008-.354.008-.716,0-1.025v-.974c.183.006.363.017.55.02h.25c.27,0,.538,0,.791-.009h.1a1.948,1.948,0,0,0,1.292-.377,1.692,1.692,0,0,0,.462-1.882,2.463,2.463,0,0,0-.4-.719,5.119,5.119,0,0,0-.575-.6c-.075-.069-.15-.137-.221-.209-.2-.2-.413-.406-.6-.583-.346-.34-.7-.678-1.042-1.014l-.792-.763c-.895-.857-1.819-1.744-2.746-2.585l-.144-.135a7.138,7.138,0,0,0-.885-.744,13.441,13.441,0,0,0-1.8-.981c-.18-.086-.359-.172-.535-.26-1.182-.588-2.363-1.16-3.557-1.735l-.7-.327c-.343-.159-.686-.319-1.021-.482l-.316-.161c-.3-.153-.6-.306-.9-.436l-.085-.038a2.709,2.709,0,0,0-1.7-.314,3.063,3.063,0,0,0-1.384.858c-.226.22-.437.456-.648.695l-.218.244c-.526.586-1.026,1.2-1.511,1.788l-.148.179c-.265.323-.538.653-.807.973l-.1.117c-.75.888-1.514,1.725-2.254,2.534l-.345.378-1.342-.727a4.871,4.871,0,0,0-4.64-.025l-.292.147,0-2.955a.765.765,0,0,0-.009-.116v-.005a2.534,2.534,0,0,0-1.331-2.292l-8.737-4.732a2.523,2.523,0,0,0-2.393-.023l-7.031,3.531-1.871.991a2.534,2.534,0,0,0-1.295,1.707c-.006.017-.012.033-.014.046a8.236,8.236,0,0,0-.115,2.153v9.814c-.007.33-.006.694,0,1.029v1.951l-3.6,1.909a5.248,5.248,0,0,0-2.7,3.666,1.047,1.047,0,0,0-.047.124c-.5,1.843-.181,8.72-.111,10.08a1.09,1.09,0,0,0,.067.322,5.211,5.211,0,0,0,2.688,4.516l27.453,15.371a5.28,5.28,0,0,0,2.578.678,5.308,5.308,0,0,0,2.581-.677l9.886-5.535,15.278-9.174a5.2,5.2,0,0,0,2.52-3.223,2.554,2.554,0,0,0,.167-.765C1029.089-651.847,1028.879-657.156,1028.854-657.758Zm-7.57-14.221.068.095c.006.289,0,.609,0,.927v2.942c.008.305.008.637,0,.983v6.246c.008.3.008.637,0,.983v.658a4.349,4.349,0,0,1-.092,1.017c-.008.022-.017.043-.024.066a.71.71,0,0,1-.333.413l-9.212,5.157a.745.745,0,0,1-.7,0l-2.024-1.136c0-1.123,0-2.472-.009-3.884l0-2.3v-.416c0-.021,0-.046,0-.056l0-.329V-662.1c0-.244-.007-.447-.013-.562v-.143c0-.02,0-.04,0-.059l0-.132c0-.036-.009-.07-.011-.106a2.475,2.475,0,0,0-.031-.312c-.009-.053-.017-.1-.03-.156a2.5,2.5,0,0,0-.119-.388c-.009-.021-.019-.04-.028-.061a2.573,2.573,0,0,0-.185-.343c-.022-.035-.046-.068-.069-.1a2.448,2.448,0,0,0-.254-.307c-.008-.008-.013-.018-.021-.026.066.019.135.032.2.046l.046.01a1.983,1.983,0,0,0,.315.028l.028,0c.016,0,.033,0,.048-.005a1.871,1.871,0,0,0,.288-.032c.029-.006.057-.01.086-.017a1.743,1.743,0,0,0,.356-.128c.018-.009.036-.022.053-.031a2.139,2.139,0,0,0,.308-.2c.032-.025.064-.05.1-.077a2.96,2.96,0,0,0,.359-.361c.265-.319.525-.645.784-.971l.377-.474c.245-.306.492-.61.737-.916q.46-.574.922-1.145c.2-.248.4-.5.6-.744l1.343-1.647,1.039-1.269a2.1,2.1,0,0,0,.387-.487q.183-.229.366-.461c.3-.38.583-.74.883-1.065l.1-.077.276.139Zm-19.471-1.606q.492-.549,1-1.1l.041-.045c.752-.823,1.53-1.673,2.309-2.6l.1-.115c.27-.321.547-.656.816-.985l.148-.18c.473-.576.961-1.171,1.458-1.725l.228-.256c.181-.205.362-.41.544-.589a2.075,2.075,0,0,1,.511-.394,1.972,1.972,0,0,1,.589.2l.1.044c.273.117.535.252.8.387l.342.174c.353.172.705.336,1.059.5l.68.318c1.183.57,2.357,1.139,3.531,1.722.184.092.371.182.559.273a12.03,12.03,0,0,1,1.566.847,5.564,5.564,0,0,1,.663.565l.16.149c.272.247.544.5.815.752l-.657-.572a1.78,1.78,0,0,0-1-.437,1.82,1.82,0,0,0-1.6.587l-.089.1c-.348.379-.666.782-.971,1.171-.145.184-.289.367-.435.545a.9.9,0,0,0-.114.18c-.025.028-.053.055-.078.079-.067.069-.122.13-.132.142l-2.359,2.9c-.272.335-.542.674-.812,1.01q-.462.573-.922,1.146c-.177.221-.356.44-.532.661l-.382.479c-.251.315-.5.631-.758.94a.869.869,0,0,1-.212.2,1.351,1.351,0,0,1-.479-.184l-5.484-2.818c-.275-.143-.547-.29-.82-.437l-.288-.156h0l-.02-.011c-.513-.268-1.045-.544-1.6-.786a1.892,1.892,0,0,1-.352-.2C1000.4-671.985,1001.1-672.787,1001.813-673.585Zm-5.941-1.464a3.442,3.442,0,0,1,1.618-.406,3.44,3.44,0,0,1,1.653.424l1.038.562c-.663.747-1.326,1.523-1.968,2.359a1.627,1.627,0,0,0-.332,1.408,1.625,1.625,0,0,0,.223.481,2.488,2.488,0,0,0-1.642.231l-1.551.779-.007-5.354Zm-2.763,8.766.75-.377-.022.023,3.456-1.747a.73.73,0,0,1,.7.006l4.934,2.683-.046-.033,3.856,2.088a.732.732,0,0,1,.376.622c0,.012,0,.024,0,.037a.734.734,0,0,0,0,.08l.005.129c0,.018,0,.036,0,.054l.014,1.991v.314h0v.142c0,.035,0,.071,0,.108l-.005.158c0,.059,0,.129,0,.206s0,.132,0,.153l.019,4.954h0c0,.572,0,1.11,0,1.59a.9.9,0,0,0,.461.788h0l-.823-.461.361.2,0,1.916c.018.607-.068.75-.237.865l-.006,0a.941.941,0,0,0-.116.069l-.084.057-5.1,3.061-3.306,1.851a.745.745,0,0,1-.729,0l-9.193-5.147a.716.716,0,0,1-.333-.417c-.009-.025-.018-.051-.029-.075a4.54,4.54,0,0,1-.087-1.008v-.674c0-.052,0-.468,0-.968,0-.007,0-.014,0-.02v-1.507h0V-659.3c-.006-.325-.007-.663,0-.99v-1.365c0-.011,0-.022,0-.033,0-.1,0-.2,0-.281v0c0-.119,0-.226,0-.325v0c0-.1,0-.184,0-.262v-.007c0-.079,0-.149.007-.211h0c0-.061.006-.113.009-.16v-.006c0-.046.006-.085.009-.118v0c.007-.069.013-.112.017-.137a.941.941,0,0,0,.04-.145.727.727,0,0,1,.38-.521l1.852-.982,2.85-1.431Zm-19.155-13.238a.862.862,0,0,0,.038-.142.727.727,0,0,1,.381-.521l1.851-.982,7.034-3.531a.734.734,0,0,1,.7.005l8.742,4.734a.731.731,0,0,1,.383.682v3.614l.007.19a.9.9,0,0,0,.02.16v2.3l-.012.3.009,4.4-3.674,1.845-1.871.992a2.538,2.538,0,0,0-1.293,1.7c-.007.019-.012.037-.016.051a3.129,3.129,0,0,0-.088.586c-.019.251-.033.59-.031,1.074,0,.153,0,.32.005.5v1.242c0,.164-.005.338-.005.511,0,.035,0,.07,0,.1,0,.14,0,.282,0,.422v5.732l-1.86,1.041a.74.74,0,0,1-.726,0l-9.194-5.148a.719.719,0,0,1-.332-.416c-.009-.025-.018-.051-.028-.074a4.521,4.521,0,0,1-.087-1.009v-.673c-.006-.325-.007-.663,0-.989v-6.239c-.006-.325-.007-.663,0-.99v-9.853A9.907,9.907,0,0,1,973.953-679.522ZM967.9-658.991a3.082,3.082,0,0,1,1.618-2.265l2.585-1.371v1.795c-.007.329-.006.694,0,1.029v.656a5.872,5.872,0,0,0,.166,1.54c.009.029.04.127.051.155a.766.766,0,0,0,.031.072,2.523,2.523,0,0,0,1.125,1.311l9.193,5.148a2.553,2.553,0,0,0,1.246.327,2.563,2.563,0,0,0,1.247-.327l.976-.547v.072a5.927,5.927,0,0,0,.155,1.5l.013.048c.008.025.038.119.048.143s.02.048.031.071a2.522,2.522,0,0,0,1.126,1.311l9.193,5.147a2.545,2.545,0,0,0,1.246.328,2.567,2.567,0,0,0,1.247-.326l3.331-1.866,5.095-3.06a1.691,1.691,0,0,0,.153-.1l.042-.024a2.558,2.558,0,0,0,1.149-2.464v-.875l1.149.646a2.6,2.6,0,0,0,1.233.319,2.469,2.469,0,0,0,1.244-.332l9.188-5.144a2.5,2.5,0,0,0,1.125-1.291.931.931,0,0,0,.059-.141l.029-.1a.883.883,0,0,0,.022-.1,6.127,6.127,0,0,0,.144-1.449v-.638c.008-.346.008-.7,0-1.025v-.807l1.915,1.037a3.03,3.03,0,0,1,1.613,2.8v.038a3.03,3.03,0,0,1-1.59,2.607l-16.38,9.791-8.773,4.912a3.089,3.089,0,0,1-3.039,0L969.452-655.8a3.061,3.061,0,0,1-.4-.267A3.088,3.088,0,0,1,967.9-658.991Zm58.789,11.082v.012a.864.864,0,0,1-.048.155,1.18,1.18,0,0,0-.036.113,3.076,3.076,0,0,1-1.506,1.942l-14.572,8.779-10.582,5.925a3.091,3.091,0,0,1-3.039,0L969.45-646.355a3.093,3.093,0,0,1-1.574-2.9,1.091,1.091,0,0,0-.092-.5c-.058-1.239-.12-3.007-.14-4.654l.033.026a5.268,5.268,0,0,0,.713.482l27.453,15.372a5.258,5.258,0,0,0,3.9.509c.058-.015.114-.035.171-.055l.082-.027a5.292,5.292,0,0,0,1.009-.427l9.507-5.322,13.729-8.3,1.926-1.084a5.4,5.4,0,0,0,.621-.407h0C1026.811-651.379,1026.778-649.449,1026.688-647.909Z" transform="translate(0)" fill="#0020ab"/>
    <path id="Trazado_46049" data-name="Trazado 46049" d="M998.308-653.64a.722.722,0,0,0,.3.977l7.59,3.995a.717.717,0,0,0,.336.083.718.718,0,0,0,.329-.079l7.705-3.938a.722.722,0,0,0,.314-.972.724.724,0,0,0-.972-.315l-7.371,3.768-7.258-3.82A.723.723,0,0,0,998.308-653.64Z" transform="translate(-9.077 -9.025)" fill="#0020ab"/>
    <path id="Trazado_46050" data-name="Trazado 46050" d="M979.031-675.084l7.59,3.995a.719.719,0,0,0,.337.083.716.716,0,0,0,.329-.079l7.705-3.938a.723.723,0,0,0,.314-.973.723.723,0,0,0-.973-.314l-7.37,3.768-7.258-3.82a.722.722,0,0,0-.976.3A.723.723,0,0,0,979.031-675.084Z" transform="translate(-3.651 -2.812)" fill="#0020ab"/>
  </g>
</svg>
