<svg xmlns="http://www.w3.org/2000/svg" width="138" height="138.033" viewBox="0 0 138 138.033">
  <g id="Grupo_41825" data-name="Grupo 41825" transform="translate(0)">
    <g id="Grupo_41810" data-name="Grupo 41810" transform="translate(20.999 8.227)">
      <g id="Grupo_41733" data-name="Grupo 41733" transform="translate(2.992 14.72)" opacity="0.53">
        <g id="Grupo_41720" data-name="Grupo 41720">
          <g id="Grupo_41719" data-name="Grupo 41719">
            <path id="Trazado_41439" data-name="Trazado 41439" d="M-1097.843-751.673a.272.272,0,0,1-.258-.053,1.459,1.459,0,0,0-.25-.144c-.117-.039-.234-.073-.354-.1a2.918,2.918,0,0,0-2.056.847l-10.247,6.67-8.37,3.228h-48.54a6.719,6.719,0,0,0-1.547.179,6.6,6.6,0,0,0-1.346,3.4v.012c-.011.107-.019.215-.025.324,0,.091-.008.182-.01.274,0,.052,0,.1,0,.157v51.011a6.282,6.282,0,0,0,5.984,6.542h14.066l.015-.064s2.805.035,6.811.064h18.241c3.538-.042,6.51-.12,8.1-.255v-62.268l6.571-2.534,10.248-6.67a2.915,2.915,0,0,1,2.056-.847,1.331,1.331,0,0,1,.353.1c.173.057.342.124.508.2a6.566,6.566,0,0,1,3.732,6.061v51.011c0,.053,0,.1,0,.157q0,.137-.01.273c-.006.108-.014.217-.026.324v.012a6.223,6.223,0,0,1-1.448,3.471,6.2,6.2,0,0,0,1.506-3.536v-.012c.011-.107.019-.215.026-.324,0-.091.008-.182.009-.273,0-.053,0-.1,0-.157v-51.012A6.568,6.568,0,0,0-1097.843-751.673Z" transform="translate(1170.852 751.991)" fill="#a3bd31"/>
          </g>
        </g>
        <g id="Grupo_41722" data-name="Grupo 41722" transform="translate(72.147 0.017)">
          <g id="Grupo_41721" data-name="Grupo 41721">
            <path id="Trazado_41440" data-name="Trazado 41440" d="M-1008.012-751.956c.119.031.237.065.354.1A1.349,1.349,0,0,0-1008.012-751.956Z" transform="translate(1008.012 751.956)" fill="none"/>
          </g>
        </g>
        <g id="Grupo_41724" data-name="Grupo 41724" transform="translate(72.501 0.121)">
          <g id="Grupo_41723" data-name="Grupo 41723">
            <path id="Trazado_41441" data-name="Trazado 41441" d="M-1006.706-751.544q-.249-.111-.508-.2a1.448,1.448,0,0,1,.25.144A.272.272,0,0,0-1006.706-751.544Z" transform="translate(1007.214 751.742)" fill="#9a999e"/>
          </g>
        </g>
        <g id="Grupo_41726" data-name="Grupo 41726" transform="translate(53.214 61.692)">
          <g id="Grupo_41725" data-name="Grupo 41725">
            <path id="Trazado_41442" data-name="Trazado 41442" d="M-1035.323-620.759c-2.677,1.384-5.366,2.746-8.081,4.04a42.418,42.418,0,0,1-6.344,2.682,7.948,7.948,0,0,1-1,.13v.059a7.671,7.671,0,0,0,.939-.125,42.475,42.475,0,0,0,6.345-2.682c2.715-1.294,5.4-2.655,8.081-4.039,1.628-.842,3.258-1.666,4.874-2.536a6.123,6.123,0,0,0,1.742-1.385,6.113,6.113,0,0,1-1.683,1.32C-1032.064-622.425-1033.694-621.6-1035.323-620.759Z" transform="translate(1050.746 624.616)" fill="#9a999e"/>
          </g>
        </g>
        <g id="Grupo_41728" data-name="Grupo 41728" transform="translate(53.214 0.064)">
          <g id="Grupo_41727" data-name="Grupo 41727">
            <path id="Trazado_41443" data-name="Trazado 41443" d="M-1027.318-693.714c.011-.107.019-.216.026-.324,0-.091.008-.182.01-.273,0-.052,0-.1,0-.157v-51.011a6.566,6.566,0,0,0-3.732-6.061.272.272,0,0,1-.257-.053,1.389,1.389,0,0,0-.25-.144c-.116-.039-.234-.073-.353-.1a2.916,2.916,0,0,0-2.056.847l-10.248,6.67-6.571,2.535v62.267a7.98,7.98,0,0,0,1-.13,42.412,42.412,0,0,0,6.344-2.682c2.716-1.294,5.4-2.656,8.081-4.04,1.629-.842,3.259-1.666,4.874-2.536a6.117,6.117,0,0,0,1.683-1.32,6.222,6.222,0,0,0,1.447-3.471Z" transform="translate(1050.746 751.858)" fill="#6eaa6f"/>
          </g>
        </g>
        <g id="Grupo_41730" data-name="Grupo 41730" transform="translate(72.089 0.081)">
          <g id="Grupo_41729" data-name="Grupo 41729">
            <path id="Trazado_41444" data-name="Trazado 41444" d="M-1008.144-751.823c.119.031.237.065.353.1A1.337,1.337,0,0,0-1008.144-751.823Z" transform="translate(1008.144 751.823)" fill="#9a999e"/>
          </g>
        </g>
        <g id="Grupo_41732" data-name="Grupo 41732" transform="translate(72.442 0.185)">
          <g id="Grupo_41731" data-name="Grupo 41731">
            <path id="Trazado_41445" data-name="Trazado 41445" d="M-1006.839-751.411c-.166-.074-.335-.14-.508-.2a1.4,1.4,0,0,1,.25.144A.272.272,0,0,0-1006.839-751.411Z" transform="translate(1007.347 751.609)" fill="#9a999e"/>
          </g>
        </g>
      </g>
      <g id="Grupo_41754" data-name="Grupo 41754" transform="translate(3.462 29.184)" opacity="0.39">
        <g id="Grupo_41735" data-name="Grupo 41735" transform="translate(76.736 43.055)">
          <g id="Grupo_41734" data-name="Grupo 41734">
            <path id="Trazado_41446" data-name="Trazado 41446" d="M-996.591-633.191v-.04c0,.052,0,.1,0,.157C-996.595-633.113-996.591-633.152-996.591-633.191Z" transform="translate(996.595 633.231)" fill="#9a999e"/>
          </g>
        </g>
        <g id="Grupo_41737" data-name="Grupo 41737" transform="translate(0 51.777)">
          <g id="Grupo_41736" data-name="Grupo 41736">
            <path id="Trazado_41447" data-name="Trazado 41447" d="M-1149.742-608.68h-14.066a6.282,6.282,0,0,1-5.984-6.542v.04a6.282,6.282,0,0,0,5.984,6.542h31.007c-3.6,0-7.179-.019-10.115-.04Z" transform="translate(1169.792 615.222)" fill="#9a999e"/>
          </g>
        </g>
        <g id="Grupo_41739" data-name="Grupo 41739" transform="translate(0.039)">
          <g id="Grupo_41738" data-name="Grupo 41738">
            <path id="Trazado_41448" data-name="Trazado 41448" d="M-1169.7-722.114v0Z" transform="translate(1169.703 722.126)" fill="#9a999e"/>
          </g>
        </g>
        <g id="Grupo_41741" data-name="Grupo 41741" transform="translate(0.004 0.335)">
          <g id="Grupo_41740" data-name="Grupo 41740">
            <path id="Trazado_41449" data-name="Trazado 41449" d="M-1169.783-721.16c0-.092,0-.183.01-.274C-1169.778-721.344-1169.781-721.252-1169.783-721.16Z" transform="translate(1169.783 721.434)" fill="#9a999e"/>
          </g>
        </g>
        <g id="Grupo_41743" data-name="Grupo 41743" transform="translate(76.7 43.485)">
          <g id="Grupo_41742" data-name="Grupo 41742">
            <path id="Trazado_41450" data-name="Trazado 41450" d="M-996.649-632.343q-.009.163-.026.324C-996.664-632.127-996.655-632.235-996.649-632.343Z" transform="translate(996.675 632.343)" fill="#9a999e"/>
          </g>
        </g>
        <g id="Grupo_41745" data-name="Grupo 41745" transform="translate(26.876 58.319)">
          <g id="Grupo_41744" data-name="Grupo 41744">
            <path id="Trazado_41451" data-name="Trazado 41451" d="M-1109.131-601.715c2.936.021,6.518.04,10.115.04,2.8,0,5.605-.011,8.126-.04Z" transform="translate(1109.131 601.715)" fill="#9a999e"/>
          </g>
        </g>
        <g id="Grupo_41747" data-name="Grupo 41747" transform="translate(0.014 0.012)">
          <g id="Grupo_41746" data-name="Grupo 41746">
            <path id="Trazado_41452" data-name="Trazado 41452" d="M-1169.761-721.778c.006-.109.014-.217.026-.324C-1169.746-721.995-1169.755-721.887-1169.761-721.778Z" transform="translate(1169.761 722.102)" fill="#9a999e"/>
          </g>
        </g>
        <g id="Grupo_41749" data-name="Grupo 41749" transform="translate(76.699 43.808)">
          <g id="Grupo_41748" data-name="Grupo 41748">
            <path id="Trazado_41453" data-name="Trazado 41453" d="M-996.677-631.675v0Z" transform="translate(996.678 631.675)" fill="#9a999e"/>
          </g>
        </g>
        <g id="Grupo_41751" data-name="Grupo 41751" transform="translate(0 0.609)">
          <g id="Grupo_41750" data-name="Grupo 41750">
            <path id="Trazado_41454" data-name="Trazado 41454" d="M-1169.792-720.753v.04c0-.052,0-.1,0-.156C-1169.788-720.83-1169.792-720.792-1169.792-720.753Z" transform="translate(1169.792 720.869)" fill="#9a999e"/>
          </g>
        </g>
        <g id="Grupo_41753" data-name="Grupo 41753" transform="translate(20.05 58.254)">
          <g id="Grupo_41752" data-name="Grupo 41752">
            <path id="Trazado_41455" data-name="Trazado 41455" d="M-1124.523-601.848l-.015.064h6.826C-1121.718-601.813-1124.523-601.848-1124.523-601.848Z" transform="translate(1124.538 601.848)" fill="#9a999e"/>
          </g>
        </g>
      </g>
      <g id="Grupo_41785" data-name="Grupo 41785" transform="translate(0 11.244)">
        <g id="Grupo_41756" data-name="Grupo 41756" transform="translate(77.479 58.365)">
          <g id="Grupo_41755" data-name="Grupo 41755">
            <path id="Trazado_41456" data-name="Trazado 41456" d="M-1002.358-637.691h-.009a.391.391,0,0,1-.363-.414v0h0l0-.064c0-.028,0-.055,0-.083a.39.39,0,0,1,.371-.406.391.391,0,0,1,.372.406v.041c0,.029,0,.058,0,.087v.04A.39.39,0,0,1-1002.358-637.691Z" transform="translate(1002.73 638.661)" fill="#082dcf"/>
          </g>
        </g>
        <g id="Grupo_41758" data-name="Grupo 41758" transform="translate(0.743 67.088)">
          <g id="Grupo_41757" data-name="Grupo 41757">
            <path id="Trazado_41457" data-name="Trazado 41457" d="M-1138.564-613.257h-31.007c-3.5,0-6.356-3.117-6.356-6.948v-.041a.39.39,0,0,1,.372-.406.39.39,0,0,1,.372.406,5.9,5.9,0,0,0,5.613,6.136h20.892c3.645.026,7.047.04,10.115.04a.39.39,0,0,1,.372.406A.39.39,0,0,1-1138.564-613.257Z" transform="translate(1175.928 620.652)" fill="#082dcf"/>
          </g>
        </g>
        <g id="Grupo_41760" data-name="Grupo 41760" transform="translate(0.782 15.673)">
          <g id="Grupo_41759" data-name="Grupo 41759">
            <path id="Trazado_41458" data-name="Trazado 41458" d="M-1175.468-726.352a.337.337,0,0,1-.05,0,.392.392,0,0,1-.322-.4.506.506,0,0,1,0-.056l.738.1A.391.391,0,0,1-1175.468-726.352Z" transform="translate(1175.839 726.808)" fill="#082dcf"/>
          </g>
        </g>
        <g id="Grupo_41762" data-name="Grupo 41762" transform="translate(0.747 15.647)">
          <g id="Grupo_41761" data-name="Grupo 41761">
            <path id="Trazado_41459" data-name="Trazado 41459" d="M-1175.546-725.777h-.008a.391.391,0,0,1-.364-.413c0-.05,0-.1,0-.149s0-.1.007-.143a.385.385,0,0,1,.394-.379.394.394,0,0,1,.348.429c0,.043,0,.088-.006.131s0,.085,0,.127A.389.389,0,0,1-1175.546-725.777Z" transform="translate(1175.918 726.863)" fill="#082dcf"/>
          </g>
        </g>
        <g id="Grupo_41764" data-name="Grupo 41764" transform="translate(77.444 58.795)">
          <g id="Grupo_41763" data-name="Grupo 41763">
            <path id="Trazado_41460" data-name="Trazado 41460" d="M-1002.438-636.637a.279.279,0,0,1-.042,0,.4.4,0,0,1-.328-.447c0-.041.008-.082.011-.123.005-.061.009-.122.013-.184a.385.385,0,0,1,.394-.379.4.4,0,0,1,.348.429c0,.069-.008.138-.014.207,0,.047-.008.093-.013.139A.385.385,0,0,1-1002.438-636.637Z" transform="translate(1002.81 637.773)" fill="#082dcf"/>
          </g>
        </g>
        <g id="Grupo_41766" data-name="Grupo 41766" transform="translate(27.62 73.63)">
          <g id="Grupo_41765" data-name="Grupo 41765">
            <path id="Trazado_41461" data-name="Trazado 41461" d="M-1104.682-606.292c-3.106,0-6.533-.013-10.214-.04a.39.39,0,0,1-.369-.408.389.389,0,0,1,.371-.4h18.241a.39.39,0,0,1,.372.4.391.391,0,0,1-.368.408C-1098.936-606.305-1101.639-606.292-1104.682-606.292Z" transform="translate(1115.266 607.144)" fill="#082dcf"/>
          </g>
        </g>
        <g id="Grupo_41768" data-name="Grupo 41768" transform="translate(0.757 15.323)">
          <g id="Grupo_41767" data-name="Grupo 41767">
            <path id="Trazado_41462" data-name="Trazado 41462" d="M-1175.525-726.4h-.023a.4.4,0,0,1-.348-.429c0-.047.006-.094.009-.14.005-.069.012-.138.019-.207a.381.381,0,0,1,.41-.357.4.4,0,0,1,.328.447c-.006.061-.011.122-.017.183,0,.041,0,.082-.008.124A.387.387,0,0,1-1175.525-726.4Z" transform="translate(1175.896 727.531)" fill="#082dcf"/>
          </g>
        </g>
        <g id="Grupo_41770" data-name="Grupo 41770" transform="translate(77.443 59.12)">
          <g id="Grupo_41769" data-name="Grupo 41769">
            <path id="Trazado_41463" data-name="Trazado 41463" d="M-1002.441-636.272h-.026a.4.4,0,0,1-.346-.413c0-.009,0-.018,0-.028s0-.029,0-.038a.379.379,0,0,1,.418-.349.4.4,0,0,1,.323.4.449.449,0,0,1,0,.054h0A.379.379,0,0,1-1002.441-636.272Z" transform="translate(1002.813 637.104)" fill="#082dcf"/>
          </g>
        </g>
        <g id="Grupo_41772" data-name="Grupo 41772" transform="translate(0.743 15.919)">
          <g id="Grupo_41771" data-name="Grupo 41771">
            <path id="Trazado_41464" data-name="Trazado 41464" d="M-1175.556-725.33a.39.39,0,0,1-.372-.406v-.041c0-.029,0-.058,0-.087l0-.04a.38.38,0,0,1,.38-.4.392.392,0,0,1,.363.414v0h0l0,.063c0,.028,0,.055,0,.083A.39.39,0,0,1-1175.556-725.33Z" transform="translate(1175.928 726.299)" fill="#082dcf"/>
          </g>
        </g>
        <g id="Grupo_41774" data-name="Grupo 41774" transform="translate(77.469 58.522)">
          <g id="Grupo_41773" data-name="Grupo 41773">
            <path id="Trazado_41465" data-name="Trazado 41465" d="M-1002.38-637.251h-.023a.4.4,0,0,1-.348-.429c0-.044,0-.088.006-.132s0-.085,0-.127a.389.389,0,0,1,.371-.4h.008a.392.392,0,0,1,.364.413q0,.075,0,.15c0,.047,0,.1-.007.143A.387.387,0,0,1-1002.38-637.251Z" transform="translate(1002.752 638.337)" fill="#082dcf"/>
          </g>
        </g>
        <g id="Grupo_41776" data-name="Grupo 41776" transform="translate(40.491 0.772)">
          <g id="Grupo_41775" data-name="Grupo 41775">
            <path id="Trazado_41466" data-name="Trazado 41466" d="M-1048.851-750.18a.39.39,0,0,1-.371-.406,5.9,5.9,0,0,0-5.613-6.136h-20.892c-3.635-.027-7.036-.04-10.116-.04a.39.39,0,0,1-.372-.406.39.39,0,0,1,.372-.406h31.008c3.5,0,6.356,3.117,6.356,6.948v.041A.39.39,0,0,1-1048.851-750.18Z" transform="translate(1086.214 757.575)" fill="#082dcf"/>
          </g>
        </g>
        <g id="Grupo_41778" data-name="Grupo 41778" transform="translate(32.737 1.178)">
          <g id="Grupo_41777" data-name="Grupo 41777">
            <path id="Trazado_41467" data-name="Trazado 41467" d="M-1085.474-756.7c-2.937-.022-6.518-.041-10.115-.041-2.8,0-5.605.011-8.126.041Z" transform="translate(1103.715 756.736)" fill="none"/>
          </g>
        </g>
        <g id="Grupo_41780" data-name="Grupo 41780">
          <g id="Grupo_41779" data-name="Grupo 41779">
            <path id="Trazado_41468" data-name="Trazado 41468" d="M-1149.614-683.914c-3.188-.023-5.615-.05-6.48-.06a1.028,1.028,0,0,1-.346.06h-14.066c-3.915,0-7.1-3.481-7.1-7.76v-51.011c0-.049,0-.1,0-.146v-.042c0-.1.005-.206.012-.313.007-.136.017-.266.031-.393l0-.038a7.141,7.141,0,0,1,3.412-5.576c2.565-1.423,5.224-2.756,7.795-4.046l1.215-.61c.635-.319,1.273-.648,1.914-.979a50.631,50.631,0,0,1,8.973-3.916l.053-.014c.59-.137,2.2-.327,9.312-.411h18.253c3.189.023,5.615.05,6.48.06a1.027,1.027,0,0,1,.346-.06h14.066c3.914,0,7.1,3.481,7.1,7.76V-700.4c0,.049,0,.1,0,.146v.042c0,.1-.006.206-.012.313-.008.137-.018.264-.031.39h0v.016a7.255,7.255,0,0,1-3.8,5.807c-1.214.654-2.451,1.291-3.649,1.906l-1.24.639c-3.247,1.678-5.749,2.929-8.113,4.055q-.394.188-.79.379a37.028,37.028,0,0,1-5.717,2.365l-.053.014c-.59.136-2.2.327-9.312.411Zm-6.811-2.5h.012s2.8.034,6.806.064h18.234c6.586-.078,8.369-.252,8.839-.353a35.662,35.662,0,0,0,5.357-2.231l.8-.381c2.343-1.116,4.825-2.357,8.05-4.024l1.245-.641c1.188-.611,2.417-1.243,3.612-1.886a4.824,4.824,0,0,0,2.574-3.9c0-.012,0-.024,0-.033.007-.065.014-.154.019-.243,0-.065.006-.14.007-.215l0-.136v-51.011a5.117,5.117,0,0,0-4.87-5.323h-13.724a1.016,1.016,0,0,1-.37.064s-2.8-.035-6.806-.064h-18.233c-6.587.077-8.369.252-8.839.353a49.237,49.237,0,0,0-8.56,3.755c-.648.334-1.293.666-1.933.988l-1.217.611c-2.551,1.28-5.189,2.6-7.715,4a4.724,4.724,0,0,0-2.21,3.71l0,.037c-.007.06-.012.147-.018.234,0,.068-.006.142-.007.218l0,.136v51.011a5.118,5.118,0,0,0,4.87,5.323h13.723A1.029,1.029,0,0,1-1156.425-686.415Zm56.634-13.216h0Z" transform="translate(1177.605 759.168)" fill="#082dcf"/>
          </g>
        </g>
        <g id="Grupo_41782" data-name="Grupo 41782" transform="translate(50.607 0.812)">
          <g id="Grupo_41781" data-name="Grupo 41781">
            <path id="Trazado_41469" data-name="Trazado 41469" d="M-1056.2-756.614h0s-2.8-.035-6.81-.064a.39.39,0,0,1-.369-.407.39.39,0,0,1,.372-.4h6.826a.362.362,0,0,1,.294.157.436.436,0,0,1,.067.35l-.015.064A.379.379,0,0,1-1056.2-756.614Z" transform="translate(1063.383 757.491)" fill="#082dcf"/>
          </g>
        </g>
        <g id="Grupo_41784" data-name="Grupo 41784" transform="translate(20.793 73.566)">
          <g id="Grupo_41783" data-name="Grupo 41783">
            <path id="Trazado_41470" data-name="Trazado 41470" d="M-1123.476-606.4h-6.826a.362.362,0,0,1-.293-.157.437.437,0,0,1-.067-.35l.015-.064a.386.386,0,0,1,.364-.305s2.805.035,6.81.064a.39.39,0,0,1,.369.407A.39.39,0,0,1-1123.476-606.4Z" transform="translate(1130.673 607.277)" fill="#082dcf"/>
          </g>
        </g>
      </g>
      <g id="Grupo_41787" data-name="Grupo 41787" transform="translate(7.041 16.887)">
        <g id="Grupo_41786" data-name="Grupo 41786">
          <path id="Trazado_41471" data-name="Trazado 41471" d="M-1160.6-736.741a1.168,1.168,0,0,1-1.114-1.205,1.172,1.172,0,0,1,1.1-1.231l43.555-.513a19.191,19.191,0,0,0,8.841-2.185l9.458-5.5a1.069,1.069,0,0,1,1.507.5,1.277,1.277,0,0,1-.461,1.648l-9.48,5.509-.042.023a21.26,21.26,0,0,1-9.812,2.435l-43.543.513Z" transform="translate(1161.714 747.516)" fill="#082dcf"/>
        </g>
      </g>
      <g id="Grupo_41789" data-name="Grupo 41789" transform="translate(5.984 38.822)">
        <g id="Grupo_41788" data-name="Grupo 41788">
          <path id="Trazado_41472" data-name="Trazado 41472" d="M-1118.075-691.966h-44.908a1.17,1.17,0,0,1-1.115-1.219,1.17,1.17,0,0,1,1.115-1.218h44.908a20.632,20.632,0,0,0,9.61-2.409l10-5.294a1.074,1.074,0,0,1,1.489.566,1.272,1.272,0,0,1-.518,1.628l-10,5.294A22.716,22.716,0,0,1-1118.075-691.966Z" transform="translate(1164.098 702.228)" fill="#082dcf"/>
        </g>
      </g>
      <g id="Grupo_41791" data-name="Grupo 41791" transform="translate(5.984 58.319)">
        <g id="Grupo_41790" data-name="Grupo 41790">
          <path id="Trazado_41473" data-name="Trazado 41473" d="M-1118.075-651.71h-44.908a1.17,1.17,0,0,1-1.115-1.219,1.17,1.17,0,0,1,1.115-1.219h44.908a20.633,20.633,0,0,0,9.61-2.409l10-5.294a1.074,1.074,0,0,1,1.489.566,1.272,1.272,0,0,1-.518,1.628l-10,5.294A22.718,22.718,0,0,1-1118.075-651.71Z" transform="translate(1164.098 661.972)" fill="#082dcf"/>
        </g>
      </g>
      <g id="Grupo_41793" data-name="Grupo 41793" transform="translate(37.783 47.159)">
        <g id="Grupo_41792" data-name="Grupo 41792">
          <path id="Trazado_41474" data-name="Trazado 41474" d="M-1091.212-663.592a1.17,1.17,0,0,1-1.115-1.219v-18.984a1.171,1.171,0,0,1,1.115-1.219,1.17,1.17,0,0,1,1.115,1.219v18.984A1.17,1.17,0,0,1-1091.212-663.592Z" transform="translate(1092.326 685.013)" fill="#082dcf"/>
        </g>
      </g>
      <g id="Grupo_41795" data-name="Grupo 41795" transform="translate(11.792 66.528)">
        <g id="Grupo_41794" data-name="Grupo 41794">
          <path id="Trazado_41475" data-name="Trazado 41475" d="M-1149.874-631.3a1.171,1.171,0,0,1-1.115-1.219V-643.8a1.171,1.171,0,0,1,1.115-1.219,1.17,1.17,0,0,1,1.114,1.219v11.288A1.17,1.17,0,0,1-1149.874-631.3Z" transform="translate(1150.989 645.022)" fill="#082dcf"/>
        </g>
      </g>
      <g id="Grupo_41797" data-name="Grupo 41797" transform="translate(46.877 66.528)">
        <g id="Grupo_41796" data-name="Grupo 41796">
          <path id="Trazado_41476" data-name="Trazado 41476" d="M-1070.686-631.3a1.171,1.171,0,0,1-1.115-1.219V-643.8a1.171,1.171,0,0,1,1.115-1.219,1.17,1.17,0,0,1,1.115,1.219v11.288A1.17,1.17,0,0,1-1070.686-631.3Z" transform="translate(1071.801 645.022)" fill="#082dcf"/>
        </g>
      </g>
      <g id="Grupo_41799" data-name="Grupo 41799" transform="translate(19.595 26.636)">
        <g id="Grupo_41798" data-name="Grupo 41798">
          <path id="Trazado_41477" data-name="Trazado 41477" d="M-1132.262-705.966a1.17,1.17,0,0,1-1.115-1.219v-18.984a1.17,1.17,0,0,1,1.115-1.219,1.17,1.17,0,0,1,1.115,1.219v18.984A1.17,1.17,0,0,1-1132.262-705.966Z" transform="translate(1133.377 727.387)" fill="#082dcf"/>
        </g>
      </g>
      <g id="Grupo_41801" data-name="Grupo 41801" transform="translate(65.593 19.453)">
        <g id="Grupo_41800" data-name="Grupo 41800">
          <path id="Trazado_41478" data-name="Trazado 41478" d="M-1028.445-718.232a1.17,1.17,0,0,1-1.115-1.219V-741a1.17,1.17,0,0,1,1.115-1.218A1.17,1.17,0,0,1-1027.33-741v21.55A1.17,1.17,0,0,1-1028.445-718.232Z" transform="translate(1029.559 742.219)" fill="#082dcf"/>
        </g>
      </g>
      <g id="Grupo_41804" data-name="Grupo 41804" transform="translate(77.765 26.482)">
        <g id="Grupo_41803" data-name="Grupo 41803">
          <g id="Grupo_41802" data-name="Grupo 41802">
            <path id="Trazado_41479" data-name="Trazado 41479" d="M-984.867-708.132a.771.771,0,0,1-.57-.258.94.94,0,0,1,0-1.247l3.258-3.562a.759.759,0,0,1,1.14,0,.941.941,0,0,1,0,1.247l-3.258,3.562A.77.77,0,0,1-984.867-708.132Zm-2.787-2.38a.788.788,0,0,1-.66-.375l-2.649-4.122a.935.935,0,0,1,.2-1.228.763.763,0,0,1,1.123.215L-987-711.9a.935.935,0,0,1-.2,1.228A.757.757,0,0,1-987.655-710.513Zm9.3-4.744a.77.77,0,0,1-.57-.258.94.94,0,0,1,0-1.247l3.259-3.562a.759.759,0,0,1,1.14,0,.941.941,0,0,1,0,1.247l-3.259,3.562A.769.769,0,0,1-978.35-715.257Zm-14.6-3.5a.787.787,0,0,1-.661-.375l-2.65-4.122a.935.935,0,0,1,.2-1.228.763.763,0,0,1,1.123.215l2.65,4.122a.935.935,0,0,1-.2,1.228A.759.759,0,0,1-992.953-718.756Zm-8.327-.4a.762.762,0,0,1-.508-.2.939.939,0,0,1-.118-1.24l2.9-3.913a.761.761,0,0,1,1.135-.129.939.939,0,0,1,.118,1.24l-2.9,3.913A.78.78,0,0,1-1001.28-719.157Zm29.447-3.224a.771.771,0,0,1-.57-.258.941.941,0,0,1,0-1.247l3.259-3.562a.759.759,0,0,1,1.141,0,.94.94,0,0,1,0,1.247l-3.259,3.562A.772.772,0,0,1-971.833-722.381Z" transform="translate(1002.086 727.706)" fill="#0029d4"/>
          </g>
        </g>
      </g>
      <g id="Grupo_41806" data-name="Grupo 41806" transform="translate(104.935 22.112)">
        <g id="Grupo_41805" data-name="Grupo 41805">
          <path id="Trazado_41480" data-name="Trazado 41480" d="M-929.563-724.492a.89.89,0,0,1-.849-.762l-1.618-8.846-7.937-.735a.927.927,0,0,1-.791-1.024.894.894,0,0,1,.937-.865l8.586.8a.9.9,0,0,1,.777.758l1.746,9.545a.948.948,0,0,1-.68,1.115A.8.8,0,0,1-929.563-724.492Z" transform="translate(940.761 736.729)" fill="#0029d4"/>
        </g>
      </g>
      <g id="Grupo_41809" data-name="Grupo 41809" transform="translate(87.766)">
        <g id="Grupo_41808" data-name="Grupo 41808">
          <g id="Grupo_41807" data-name="Grupo 41807">
            <path id="Trazado_41481" data-name="Trazado 41481" d="M-962.366-765.526a5.515,5.515,0,0,1-3.393,1.507.131.131,0,0,0-.109.132v2.233a.129.129,0,0,1-.123.134h-1.419a.129.129,0,0,1-.123-.134v-2.206a.129.129,0,0,0-.113-.133,10.507,10.507,0,0,1-2.729-.59,6.152,6.152,0,0,1-2.061-1.177.144.144,0,0,1-.033-.159l.812-1.992a.116.116,0,0,1,.185-.051,6.718,6.718,0,0,0,1.705,1.016,7.561,7.561,0,0,0,2.1.552.13.13,0,0,0,.137-.136v-4.184a.133.133,0,0,0-.095-.13,13.8,13.8,0,0,1-2.311-.807,4.222,4.222,0,0,1-1.614-1.331,3.8,3.8,0,0,1-.65-2.32,4.293,4.293,0,0,1,1.2-3.063,5.33,5.33,0,0,1,3.362-1.5.129.129,0,0,0,.11-.132v-2.254a.129.129,0,0,1,.123-.135h1.419a.129.129,0,0,1,.123.135v2.2a.128.128,0,0,0,.114.132,8.818,8.818,0,0,1,2.109.414,7.119,7.119,0,0,1,1.811.872.142.142,0,0,1,.048.166l-.741,2a.117.117,0,0,1-.172.065,7.956,7.956,0,0,0-3.028-1.1.129.129,0,0,0-.14.135v4.223a.133.133,0,0,0,.1.13,14.491,14.491,0,0,1,2.331.8,4.225,4.225,0,0,1,1.624,1.321,3.761,3.761,0,0,1,.66,2.319A4.238,4.238,0,0,1-962.366-765.526Zm-6.69-8.733a4.187,4.187,0,0,0,1.362.7.127.127,0,0,0,.161-.129v-3.608a.129.129,0,0,0-.147-.134,2.588,2.588,0,0,0-1.4.683,1.826,1.826,0,0,0-.507,1.31A1.461,1.461,0,0,0-969.057-774.259Zm4.782,7.146a1.679,1.679,0,0,0,.5-1.011,1.694,1.694,0,0,0-.645-1.551,4.567,4.567,0,0,0-1.292-.627.127.127,0,0,0-.159.129v3.589a.128.128,0,0,0,.145.133A2.758,2.758,0,0,0-964.275-767.113Z" transform="translate(972.481 782.383)" fill="#0029d4"/>
          </g>
        </g>
      </g>
    </g>
    <g id="Grupo_41811" data-name="Grupo 41811" transform="translate(30.143 123.949)" opacity="0.07">
      <path id="Trazado_41482" data-name="Trazado 41482" d="M-1103.883-587.764h-41.691a10.621,10.621,0,0,0-5.4,1.492l-13.37,7.886c-2.093,1.234-1.29,4.707,1.088,4.707h41.691a10.619,10.619,0,0,0,5.4-1.492l13.369-7.885C-1100.7-584.292-1101.506-587.764-1103.883-587.764Z" transform="translate(1165.554 587.764)"/>
    </g>
    <g id="Grupo_41812" data-name="Grupo 41812" transform="translate(11.263 91.743)">
      <path id="Trazado_41483" data-name="Trazado 41483" d="M-1198.693-596.926a.857.857,0,0,1-.685-.353,1.032,1.032,0,0,1,.12-1.363l4.1-3.694a.836.836,0,0,1,1.247.132,1.032,1.032,0,0,1-.121,1.364l-4.1,3.694A.835.835,0,0,1-1198.693-596.926Zm8.208-7.389a.857.857,0,0,1-.684-.353,1.032,1.032,0,0,1,.121-1.364l4.1-3.694a.836.836,0,0,1,1.248.132,1.032,1.032,0,0,1-.121,1.364l-4.1,3.695A.837.837,0,0,1-1190.484-604.315Z" transform="translate(1199.579 609.947)" fill="#0029d4"/>
    </g>
    <g id="Grupo_41813" data-name="Grupo 41813" transform="translate(8.908 17.895)">
      <path id="Trazado_41484" data-name="Trazado 41484" d="M-1204.009-754.672a.93.93,0,0,1-.886-.969v-5.812a.93.93,0,0,1,.886-.969.93.93,0,0,1,.886.969v5.812A.93.93,0,0,1-1204.009-754.672Z" transform="translate(1204.895 762.421)" fill="#0029d4"/>
    </g>
    <g id="Grupo_41814" data-name="Grupo 41814" transform="translate(8.908 4.538)">
      <path id="Trazado_41485" data-name="Trazado 41485" d="M-1204.009-782.251a.93.93,0,0,1-.886-.969v-5.812a.93.93,0,0,1,.886-.969.93.93,0,0,1,.886.969v5.812A.93.93,0,0,1-1204.009-782.251Z" transform="translate(1204.895 790)" fill="#0029d4"/>
    </g>
    <g id="Grupo_41815" data-name="Grupo 41815" transform="translate(0 14.084)">
      <path id="Trazado_41486" data-name="Trazado 41486" d="M-1218.8-768.353h-5.317a.93.93,0,0,1-.886-.969.931.931,0,0,1,.886-.969h5.317a.93.93,0,0,1,.886.969A.93.93,0,0,1-1218.8-768.353Z" transform="translate(1225 770.29)" fill="#0029d4"/>
    </g>
    <g id="Grupo_41816" data-name="Grupo 41816" transform="translate(12.219 14.084)">
      <path id="Trazado_41487" data-name="Trazado 41487" d="M-1191.218-768.353h-5.317a.93.93,0,0,1-.886-.969.931.931,0,0,1,.886-.969h5.317a.93.93,0,0,1,.886.969A.93.93,0,0,1-1191.218-768.353Z" transform="translate(1197.421 770.29)" fill="#0029d4"/>
    </g>
    <g id="Grupo_41817" data-name="Grupo 41817" transform="translate(29.401 7.948)">
      <path id="Trazado_41488" data-name="Trazado 41488" d="M-1158.2-778.441a.465.465,0,0,1-.443-.484v-3.549a.465.465,0,0,1,.443-.484.465.465,0,0,1,.443.484v3.549A.465.465,0,0,1-1158.2-778.441Z" transform="translate(1158.64 782.959)" fill="#9e9e9e"/>
    </g>
    <g id="Grupo_41818" data-name="Grupo 41818" transform="translate(29.401)">
      <path id="Trazado_41489" data-name="Trazado 41489" d="M-1158.2-794.851a.465.465,0,0,1-.443-.484v-3.549a.465.465,0,0,1,.443-.484.465.465,0,0,1,.443.484v3.549A.465.465,0,0,1-1158.2-794.851Z" transform="translate(1158.64 799.369)" fill="#9e9e9e"/>
    </g>
    <g id="Grupo_41819" data-name="Grupo 41819" transform="translate(24.018 5.68)">
      <path id="Trazado_41490" data-name="Trazado 41490" d="M-1167.1-786.672h-3.246a.465.465,0,0,1-.443-.484.465.465,0,0,1,.443-.484h3.246a.465.465,0,0,1,.443.484A.465.465,0,0,1-1167.1-786.672Z" transform="translate(1170.789 787.641)" fill="#9e9e9e"/>
    </g>
    <g id="Grupo_41820" data-name="Grupo 41820" transform="translate(31.289 5.68)">
      <path id="Trazado_41491" data-name="Trazado 41491" d="M-1150.691-786.672h-3.246a.465.465,0,0,1-.443-.484.465.465,0,0,1,.443-.484h3.246a.465.465,0,0,1,.443.484A.465.465,0,0,1-1150.691-786.672Z" transform="translate(1154.38 787.641)" fill="#9e9e9e"/>
    </g>
    <g id="Grupo_41821" data-name="Grupo 41821" transform="translate(110.486 90.365)">
      <path id="Trazado_41492" data-name="Trazado 41492" d="M-975.184-608.274a.465.465,0,0,1-.443-.484v-3.549a.465.465,0,0,1,.443-.484.465.465,0,0,1,.443.484v3.549A.465.465,0,0,1-975.184-608.274Z" transform="translate(975.627 612.792)" fill="#9e9e9e"/>
    </g>
    <g id="Grupo_41822" data-name="Grupo 41822" transform="translate(110.486 82.418)">
      <path id="Trazado_41493" data-name="Trazado 41493" d="M-975.184-624.684a.465.465,0,0,1-.443-.484v-3.549a.465.465,0,0,1,.443-.484.465.465,0,0,1,.443.484v3.549A.465.465,0,0,1-975.184-624.684Z" transform="translate(975.627 629.201)" fill="#9e9e9e"/>
    </g>
    <g id="Grupo_41823" data-name="Grupo 41823" transform="translate(105.103 88.097)">
      <path id="Trazado_41494" data-name="Trazado 41494" d="M-984.088-616.505h-3.246a.465.465,0,0,1-.443-.484.465.465,0,0,1,.443-.484h3.246a.465.465,0,0,1,.443.484A.465.465,0,0,1-984.088-616.505Z" transform="translate(987.777 617.474)" fill="#9e9e9e"/>
    </g>
    <g id="Grupo_41824" data-name="Grupo 41824" transform="translate(112.373 88.097)">
      <path id="Trazado_41495" data-name="Trazado 41495" d="M-967.679-616.505h-3.246a.465.465,0,0,1-.443-.484.465.465,0,0,1,.443-.484h3.246a.465.465,0,0,1,.443.484A.465.465,0,0,1-967.679-616.505Z" transform="translate(971.368 617.474)" fill="#9e9e9e"/>
    </g>
  </g>
</svg>


