<svg xmlns="http://www.w3.org/2000/svg" width="50.738" height="55.69" viewBox="0 0 50.738 55.69">
  <g id="Grupo_42530" data-name="Grupo 42530" transform="translate(-1115.237 821.139)">
    <g id="Grupo_42510" data-name="Grupo 42510" transform="translate(1115.237 -821.139)">
      <g id="Grupo_42508" data-name="Grupo 42508" transform="translate(2.019 1.802)">
        <path id="Trazado_46055" data-name="Trazado 46055" d="M1119.692-803.236a2.522,2.522,0,0,0,.32.213l.43.24,4.039,2.261,1.835,1.028,4.03,2.257,1.844,1.032,9.663,5.41a2.457,2.457,0,0,0,2.418,0l6.98-3.908,1.649-.985,1.733-1.036,3.761-2.248,1.734-1.036,3.76-2.248.4-.236a2.433,2.433,0,0,0,.971-.976,2.477,2.477,0,0,0,.295-1.1v-.03a2.413,2.413,0,0,0-1.284-2.229L1144-817.487l-.334-.181a2.739,2.739,0,0,0-1.315-.338,2.736,2.736,0,0,0-1.288.323l-.553.266v.006l-20.449,10.047a2.452,2.452,0,0,0-1.288,1.8,2.488,2.488,0,0,0,.271,1.567A2.458,2.458,0,0,0,1119.692-803.236Z" transform="translate(-1118.747 818.005)" fill="none"/>
      </g>
      <g id="Grupo_42509" data-name="Grupo 42509">
        <path id="Trazado_46056" data-name="Trazado 46056" d="M1165.82-804.756c-.018-.6-.035-1.024-.04-1.156a4.164,4.164,0,0,0-2.187-3.761l-21.031-11.065v.011a3.873,3.873,0,0,0-3.542.032l-21.259,10.475a4.179,4.179,0,0,0-2.152,2.916.781.781,0,0,0-.037.1,22.392,22.392,0,0,0-.211,4.46c-.06,2.694-.125,6.538-.125,10.637,0,6.274-.014,9.541.439,11.3.018.07.039.138.06.206a3.464,3.464,0,0,0,.318.764c.015.024.028.041.041.064a4.166,4.166,0,0,0,1.58,1.555l21.842,12.23a4.2,4.2,0,0,0,2.05.539,4.222,4.222,0,0,0,2.053-.539l7.865-4.4,12.156-7.3a4.133,4.133,0,0,0,2-2.564,2.036,2.036,0,0,0,.134-.608c.006-.1.011-.2.016-.307.01-.008.017-.028.021-.074.045-.624.159-9.251.159-15.494C1165.975-800.372,1165.89-803.1,1165.82-804.756Zm-48.536-2.137a2.453,2.453,0,0,1,1.288-1.8l20.449-10.047v-.006l.553-.266a2.734,2.734,0,0,1,1.288-.323,2.738,2.738,0,0,1,1.315.338l.334.181,20.262,10.662a2.414,2.414,0,0,1,1.284,2.229v.03a2.476,2.476,0,0,1-.295,1.1,2.433,2.433,0,0,1-.971.976l-.4.236-3.76,2.247L1156.9-800.3l-3.761,2.248-1.733,1.036-1.649.985-6.98,3.908a2.458,2.458,0,0,1-2.418,0l-9.663-5.41-1.844-1.032-4.03-2.257-1.835-1.028-4.039-2.261-.43-.24a2.52,2.52,0,0,1-.32-.213,2.456,2.456,0,0,1-.644-.759A2.488,2.488,0,0,1,1117.284-806.893Zm46.857,22.7c0,1.228-.031,2.3-.083,3.209v.039a.654.654,0,0,1-.039.124c-.01.027-.018.055-.028.09a2.446,2.446,0,0,1-1.2,1.546l-11.594,6.984-8.419,4.714a2.459,2.459,0,0,1-2.418,0l-21.842-12.229a2.442,2.442,0,0,1-1.081-1.24c-.021-.053-.028-.11-.045-.164-.006-.012-.016-.016-.021-.029a5.628,5.628,0,0,1-.172-1.26c0-.006,0-.013-.006-.02-.015-.323-.03-.695-.045-1.091,0-.127,0-.251.007-.385,0-.276,0-.552,0-.828q0-.669,0-1.339c0-.975.009-1.948.017-2.906.005-.64.011-1.274.017-1.9q.006-.676.014-1.335c0-.177,0-.354.006-.529.008-.647.016-1.279.025-1.889q.007-.5.014-.973c.015-.977.03-1.889.045-2.718,0-.085,0-.166,0-.248,0-.143.005-.284.008-.421.01-.514.019-.983.027-1.411l.011.014v-.545l0-.133c.013-.623.024-1.115.031-1.447a2.43,2.43,0,0,1,.172-.407l.012.007c.037.022.072.047.11.067l1.7.953,1.728.973,1.827,1.029,4.02,2.265,1.835,1.034.031-.015,10.7,5.991a4.181,4.181,0,0,0,3.1.4c.046-.012.091-.028.136-.043l.065-.022a4.213,4.213,0,0,0,.8-.339l2.309-1.293,5.255-2.942,2.017-1.219,1.722-1.042,3.738-2.26,1.724-1.042,1.177-.711.855-.5,1.223-.688c.041-.023.082-.056.123-.081a4.168,4.168,0,0,0,.37-.243l0,.11c0,.063,0,.163.005.278Z" transform="translate(-1115.237 821.139)" fill="#0020ab"/>
      </g>
    </g>
    <g id="Grupo_42511" data-name="Grupo 42511" transform="translate(1140.587 -786.598)">
      <path id="Trazado_46057" data-name="Trazado 46057" d="M1159.89-746.444a.575.575,0,0,1-.575-.575V-760.5a.575.575,0,0,1,.575-.575.575.575,0,0,1,.575.575v13.485A.575.575,0,0,1,1159.89-746.444Z" transform="translate(-1159.315 761.079)" fill="#0020ab"/>
    </g>
    <g id="Grupo_42529" data-name="Grupo 42529" transform="translate(1144.17 -798.14)">
      <g id="Grupo_42512" data-name="Grupo 42512" transform="translate(13.434 17.928)">
        <path id="Trazado_46058" data-name="Trazado 46058" d="M1189.521-748.75a.575.575,0,0,1-.507-.3l-.041-.075a.576.576,0,0,1,.195-.757.576.576,0,0,1,.77.137l.05.066a.576.576,0,0,1,.1.479.577.577,0,0,1-.3.385l-.011.006A.574.574,0,0,1,1189.521-748.75Z" transform="translate(-1188.905 749.975)" fill="#001ab0"/>
      </g>
      <g id="Grupo_42513" data-name="Grupo 42513" transform="translate(9.897 0.952)">
        <path id="Trazado_46059" data-name="Trazado 46059" d="M1188.265-770.649a.571.571,0,0,1-.354-.122h0a2.968,2.968,0,0,0-.619-.323,7.493,7.493,0,0,0-2.12-.553.574.574,0,0,1-.445-.3l-.04-.074-1.09-2.157a.44.44,0,0,1-.039-.06,1.137,1.137,0,0,0-.485-.466.576.576,0,0,1-.318-.5.577.577,0,0,1,.287-.515l6.037-3.5c.028-.016.1-.048.13-.059a1.993,1.993,0,0,1,1.878.046,1.992,1.992,0,0,1,1.037,1.764v6.073a.574.574,0,0,1-.386.543.575.575,0,0,1-.64-.186,1.129,1.129,0,0,0-1.414-.29.6.6,0,0,1-.067.03l-1.078.582A.576.576,0,0,1,1188.265-770.649Zm-2.658-2.1a8.438,8.438,0,0,1,2.117.592,3.792,3.792,0,0,1,.564.269l.83-.449a.566.566,0,0,1,.087-.038,2.289,2.289,0,0,1,1.769-.107v-4.985a.849.849,0,0,0-.45-.762.845.845,0,0,0-.808-.017c-.016.009-.082.038-.1.045l-5.282,3.065a2.277,2.277,0,0,1,.187.266.419.419,0,0,1,.027.037.845.845,0,0,1,.044.073Z" transform="translate(-1182.755 779.492)" fill="#001ab0"/>
      </g>
      <g id="Grupo_42514" data-name="Grupo 42514" transform="translate(2.047 6.075)">
        <path id="Trazado_46060" data-name="Trazado 46060" d="M1171.16-751.869c-.064,0-.128,0-.193-.009l-.031,0a2.008,2.008,0,0,1-1.771-1.541,1.8,1.8,0,0,1-.061-.463v-12.158a2.028,2.028,0,0,1,1.006-1.752l4.681-2.714a.577.577,0,0,1,.591.008.574.574,0,0,1,.272.524,1.148,1.148,0,0,0,.122.585.528.528,0,0,1,.03.069l.8,1.564a.574.574,0,0,1,.035.441.573.573,0,0,1-.22.294l-.02.017a4.434,4.434,0,0,0-.565.549,3.93,3.93,0,0,0-.927,3.276c0,.015.011.068.013.085a.536.536,0,0,1-.29.607l-1.692.924a.541.541,0,0,1-.065.043,1.124,1.124,0,0,0-.44,1.525,1.124,1.124,0,0,0,1.521.451.483.483,0,0,1,.068-.03l2.3-1.265a.58.58,0,0,1,.519-.018,5.682,5.682,0,0,0,2.4.488h.016a1.458,1.458,0,0,1,.2-.011,3.608,3.608,0,0,0,.583-.056.574.574,0,0,1,.6.293l.975,1.8a.575.575,0,0,1-.216.764l-9.237,5.441A1.916,1.916,0,0,1,1171.16-751.869Zm3.491-17.228-3.964,2.3a.862.862,0,0,0-.432.756v12.158a.7.7,0,0,0,.025.18.868.868,0,0,0,.766.679.841.841,0,0,0,.522-.1l8.765-5.163-.519-.958a3.662,3.662,0,0,1-.427.016.521.521,0,0,1-.166.012h-.018a6.83,6.83,0,0,1-2.573-.476l-2.1,1.158a.535.535,0,0,1-.089.04,2.294,2.294,0,0,1-3.01-.945,2.264,2.264,0,0,1,.789-3.022.569.569,0,0,1,.113-.075l1.4-.762a5.13,5.13,0,0,1,1.235-3.9,5.188,5.188,0,0,1,.416-.433l-.614-1.2a.636.636,0,0,1-.037-.087C1174.7-768.981,1174.674-769.039,1174.651-769.1Zm4.642,8.728h0Zm-2.942-6.614h0Z" transform="translate(-1169.105 770.585)" fill="#001ab0"/>
      </g>
      <g id="Grupo_42515" data-name="Grupo 42515" transform="translate(15.395 10.584)">
        <path id="Trazado_46061" data-name="Trazado 46061" d="M1193.909-755.907a.584.584,0,0,1-.154-.021.573.573,0,0,1-.351-.279l-1.018-1.869a.573.573,0,0,1,.044-.62,4.043,4.043,0,0,0,.822-2.348.575.575,0,0,1,.3-.5l1.265-.69a1.224,1.224,0,0,0,.343-.3.575.575,0,0,1,.64-.185.575.575,0,0,1,.386.543v3.859a2.026,2.026,0,0,1-1,1.744l-.989.58A.572.572,0,0,1,1193.909-755.907Zm-.344-2.408.565,1.036.477-.28a.872.872,0,0,0,.429-.752v-2.732l-.65.355A5.214,5.214,0,0,1,1193.565-758.315Z" transform="translate(-1192.315 762.745)" fill="#001ab0"/>
      </g>
      <g id="Grupo_42516" data-name="Grupo 42516" transform="translate(0 0)">
        <path id="Trazado_46062" data-name="Trazado 46062" d="M1169.365-756.357a.82.82,0,0,1-.095-.006,5.79,5.79,0,0,1-3.318-1.718.57.57,0,0,1-.123-.232,1.966,1.966,0,0,1-.283-1.014v-12.158a2.03,2.03,0,0,1,1.012-1.752l13.169-7.642a2,2,0,0,1,1.675-.152c.018,0,.037.008.055.014a8.85,8.85,0,0,1,2.393,1.125.576.576,0,0,1,.215.449v.006a.574.574,0,0,1-.287.5.573.573,0,0,1-.574,0,.84.84,0,0,0-.8-.012c-.016.009-.082.038-.1.045l-6,3.48a.575.575,0,0,1-.543.018,1.107,1.107,0,0,0-1.034.012,1.115,1.115,0,0,0-.587.932.575.575,0,0,1-.285.464l-4.682,2.715a.862.862,0,0,0-.433.756v12.158a.7.7,0,0,0,.025.18.867.867,0,0,0,.766.679.576.576,0,0,1,.52.6.576.576,0,0,1-.575.548A.936.936,0,0,1,1169.365-756.357Zm-2.441-2.372a4.588,4.588,0,0,0,.677.53c-.006-.057-.009-.115-.009-.172V-770.53a2.028,2.028,0,0,1,1.006-1.752l4.436-2.572a2.261,2.261,0,0,1,.635-1.181l-6.537,3.793a.877.877,0,0,0-.438.757v12.158a.822.822,0,0,0,.171.5A.6.6,0,0,1,1166.925-758.73Zm8.328-17.949a2.3,2.3,0,0,1,.721.116l5.549-3.218c-.127-.046-.24-.084-.329-.113a.541.541,0,0,1-.132-.036.837.837,0,0,0-.759.047l-5.669,3.29A2.25,2.25,0,0,1,1175.252-776.679Z" transform="translate(-1165.546 781.148)" fill="#001ab0"/>
      </g>
      <g id="Grupo_42517" data-name="Grupo 42517" transform="translate(6.71 12.988)">
        <path id="Trazado_46063" data-name="Trazado 46063" d="M1177.8-757.311a.584.584,0,0,1-.236-.051.577.577,0,0,1-.323-.388c-.006-.024-.016-.085-.019-.108a.57.57,0,0,1,.208-.557.556.556,0,0,1,.377-.123c.028-.007.058-.014.089-.019a.579.579,0,0,1,.644.38.574.574,0,0,1-.274.7l-.2.1A.577.577,0,0,1,1177.8-757.311Z" transform="translate(-1177.213 758.564)" fill="#001ab0"/>
      </g>
      <g id="Grupo_42518" data-name="Grupo 42518" transform="translate(6.635 7.639)">
        <path id="Trazado_46064" data-name="Trazado 46064" d="M1182.651-758.064h-.041a6.983,6.983,0,0,1-2.863-.593c-.167-.075-.316-.152-.452-.23a.575.575,0,0,1-.285-.577,3.272,3.272,0,0,0-.813-1.873.127.127,0,0,0-.131-.041.542.542,0,0,1-.515.015.687.687,0,0,1-.381-.435,5.086,5.086,0,0,1,1.18-4.248,5.655,5.655,0,0,1,.71-.691h0a.592.592,0,0,1,.166-.116.575.575,0,0,1,.768.251l.011.021a1.527,1.527,0,0,0,.8-.12,3.871,3.871,0,0,0,1.463-.92.563.563,0,0,1,.577-.232.685.685,0,0,1,.091.013,8.4,8.4,0,0,1,2.375.623.575.575,0,0,1,.3.745.574.574,0,0,1-.738.319,3.007,3.007,0,0,0-1.039-.192,3.348,3.348,0,0,0-.707.06,3.85,3.85,0,0,0-1.13.389,4.189,4.189,0,0,0-1.215.976c-.038.045-.068.088-.1.132l-.079.11a4.066,4.066,0,0,0-.79,2.067,3.419,3.419,0,0,0,.229,1.585,2.892,2.892,0,0,0,.776,1.082.788.788,0,0,1,.089.071,2.41,2.41,0,0,0,.495.32,3.023,3.023,0,0,0,1.381.328.575.575,0,0,1,.575.575.575.575,0,0,1-.575.575A.7.7,0,0,1,1182.651-758.064Zm-4.414-4.467a1.238,1.238,0,0,1,.422.125c0-.1.007-.2.015-.3a5.234,5.234,0,0,1,1.013-2.659l.063-.086,0-.007a1.467,1.467,0,0,1-.291-.1c-.086.085-.165.17-.239.256A4.011,4.011,0,0,0,1178.236-762.531Z" transform="translate(-1177.082 767.866)" fill="#001ab0"/>
      </g>
      <g id="Grupo_42519" data-name="Grupo 42519" transform="translate(14.061 8.237)">
        <path id="Trazado_46065" data-name="Trazado 46065" d="M1191.318-765.284a.571.571,0,0,1-.3-.083,5.588,5.588,0,0,0-.677-.355.576.576,0,0,1-.305-.744.577.577,0,0,1,.737-.322,4.14,4.14,0,0,1,.869.454.575.575,0,0,1,.159.786A.574.574,0,0,1,1191.318-765.284Z" transform="translate(-1189.996 766.826)" fill="#001ab0"/>
      </g>
      <g id="Grupo_42520" data-name="Grupo 42520" transform="translate(8.209 8.005)">
        <path id="Trazado_46066" data-name="Trazado 46066" d="M1184.012-757.806h-.074a4.136,4.136,0,0,1-1.878-.447,3.561,3.561,0,0,1-.733-.48.531.531,0,0,1-.057-.042,4.013,4.013,0,0,1-1.12-1.54,4.564,4.564,0,0,1-.313-2.121,5.235,5.235,0,0,1,1.013-2.659l.063-.086a2.594,2.594,0,0,1,.166-.219,5.331,5.331,0,0,1,1.546-1.242,5.028,5.028,0,0,1,1.472-.506,4.538,4.538,0,0,1,.939-.078,4.127,4.127,0,0,1,1.417.267,6.692,6.692,0,0,1,.839.437.535.535,0,0,1,.09.067,2.9,2.9,0,0,1,.266.2c.057.05.112.1.167.16a4.263,4.263,0,0,1,1.278,3.153v0a5.2,5.2,0,0,1-1.052,3.023l-.06.078c-.049.064-.1.129-.154.193a5.207,5.207,0,0,1-3.046,1.762A4.853,4.853,0,0,1,1184.012-757.806Zm-2.024-1.869a.8.8,0,0,1,.089.071,2.408,2.408,0,0,0,.495.32,3.11,3.11,0,0,0,1.437.328,3.6,3.6,0,0,0,.583-.056,4.054,4.054,0,0,0,2.364-1.376c.041-.048.076-.095.112-.142l.062-.081a4.033,4.033,0,0,0,.815-2.337,3.133,3.133,0,0,0-.932-2.322c-.047-.047-.083-.083-.121-.116a1.847,1.847,0,0,0-.193-.144c-.018-.012-.035-.025-.052-.039a5.429,5.429,0,0,0-.626-.324,2.992,2.992,0,0,0-1.016-.183,3.347,3.347,0,0,0-.707.06,3.855,3.855,0,0,0-1.13.389,4.189,4.189,0,0,0-1.214.976c-.039.045-.068.088-.1.132l-.079.11a4.069,4.069,0,0,0-.79,2.068,3.421,3.421,0,0,0,.229,1.584A2.892,2.892,0,0,0,1181.988-759.675Zm6.53-3.267h0Z" transform="translate(-1179.82 767.229)" fill="#001ab0"/>
      </g>
      <g id="Grupo_42521" data-name="Grupo 42521" transform="translate(14.809 8.629)">
        <path id="Trazado_46067" data-name="Trazado 46067" d="M1191.894-764.972a.573.573,0,0,1-.4-.164h0l-.029-.026a.575.575,0,0,1,0-.813.575.575,0,0,1,.758-.049.74.74,0,0,1,.089.076.577.577,0,0,1,.158.4v.006a.575.575,0,0,1-.351.53A.577.577,0,0,1,1191.894-764.972Z" transform="translate(-1191.296 766.145)" fill="#001ab0"/>
      </g>
      <g id="Grupo_42522" data-name="Grupo 42522" transform="translate(12.497 14.402)">
        <path id="Trazado_46068" data-name="Trazado 46068" d="M1190.287-750.55a2.27,2.27,0,0,1-1.842-.943.561.561,0,0,1-.13-.163l-.97-1.789a.578.578,0,0,1-.012-.525.577.577,0,0,1,.419-.316,4.058,4.058,0,0,0,2.37-1.377c.041-.048.076-.095.112-.142l.062-.081a.575.575,0,0,1,.5-.219.573.573,0,0,1,.458.3l1.019,1.869a.682.682,0,0,1,.032.067h0c.007.017.014.034.021.052a2.278,2.278,0,0,1-.97,3A2.237,2.237,0,0,1,1190.287-750.55Zm-1.04-1.8h0l.05.066a.406.406,0,0,1,.034.049,1.117,1.117,0,0,0,1.479.4l0,0a1.124,1.124,0,0,0,.461-1.509.6.6,0,0,1-.038-.091l-.6-1.1a5.23,5.23,0,0,1-1.931,1.187Z" transform="translate(-1187.275 756.105)" fill="#001ab0"/>
      </g>
      <g id="Grupo_42523" data-name="Grupo 42523" transform="translate(13.47 18.003)">
        <path id="Trazado_46069" data-name="Trazado 46069" d="M1189.544-748.694a.571.571,0,0,1-.406-.167.571.571,0,0,1,0-.81l.006-.006a.575.575,0,0,1,.813,0,.576.576,0,0,1,0,.813A.579.579,0,0,1,1189.544-748.694Z" transform="translate(-1188.968 749.845)" fill="#001ab0"/>
      </g>
      <g id="Grupo_42524" data-name="Grupo 42524" transform="translate(4.084 12.969)">
        <path id="Trazado_46070" data-name="Trazado 46070" d="M1174.938-753.173a2.288,2.288,0,0,1-2.008-1.178,2.264,2.264,0,0,1,.789-3.022.561.561,0,0,1,.113-.075l1.955-1.064a.617.617,0,0,1,.144-.053,1.27,1.27,0,0,1,1.167.324,4.278,4.278,0,0,1,1.168,2.868l0,.009a1.392,1.392,0,0,1-.725,1.057.713.713,0,0,1-.141.108l-1.369.753a.535.535,0,0,1-.089.04A2.268,2.268,0,0,1,1174.938-753.173Zm-.493-3.3a.578.578,0,0,1-.066.043,1.124,1.124,0,0,0-.44,1.525,1.124,1.124,0,0,0,1.521.451.486.486,0,0,1,.068-.03l1.256-.692a1.466,1.466,0,0,1,.183-.131.267.267,0,0,0,.159-.228,3.282,3.282,0,0,0-.814-1.869.15.15,0,0,0-.081-.045Zm3.251,1.021h0Z" transform="translate(-1172.647 758.598)" fill="#001ab0"/>
      </g>
      <g id="Grupo_42525" data-name="Grupo 42525" transform="translate(14.832 7.831)">
        <path id="Trazado_46071" data-name="Trazado 46071" d="M1193.411-762.5a.574.574,0,0,1-.294-.082.575.575,0,0,1-.281-.5,3.132,3.132,0,0,0-.932-2.324.609.609,0,0,1-.049-.053.863.863,0,0,0-.194-.169.815.815,0,0,1-.094-.06.574.574,0,0,1-.23-.5.574.574,0,0,1,.3-.465l1.127-.61a.579.579,0,0,1,.087-.038,2.279,2.279,0,0,1,2.795.625,2.242,2.242,0,0,1,.217.321,2.267,2.267,0,0,1-.219,2.5,2.316,2.316,0,0,1-.664.572l-1.293.707A.578.578,0,0,1,1193.411-762.5Zm-.51-3.528a4.181,4.181,0,0,1,1,2.03l.5-.272a1.226,1.226,0,0,0,.343-.3v0a1.12,1.12,0,0,0,.105-1.24,1.124,1.124,0,0,0-.107-.155,1.128,1.128,0,0,0-1.414-.29.589.589,0,0,1-.067.03Z" transform="translate(-1191.336 767.531)" fill="#001ab0"/>
      </g>
      <g id="Grupo_42526" data-name="Grupo 42526" transform="translate(7.982 15.541)">
        <path id="Trazado_46072" data-name="Trazado 46072" d="M1180-752.227a.575.575,0,0,1-.461-.231.575.575,0,0,1,.055-.753,1.342,1.342,0,0,1,.252-.194.268.268,0,0,0,.16-.232.572.572,0,0,1,.318-.431.575.575,0,0,1,.535.018,3.914,3.914,0,0,0,.357.181.576.576,0,0,1,.34.5.576.576,0,0,1-.3.528l-.984.541A.567.567,0,0,1,1180-752.227Z" transform="translate(-1179.425 754.126)" fill="#001ab0"/>
      </g>
      <g id="Grupo_42527" data-name="Grupo 42527" transform="translate(7.445 4.469)">
        <path id="Trazado_46073" data-name="Trazado 46073" d="M1180.766-767.757a1.568,1.568,0,0,1-.919-.266.576.576,0,0,1-.179-.207l-.917-1.794a.592.592,0,0,1-.037-.087,2.291,2.291,0,0,1-.218-1.12,2.254,2.254,0,0,1,1.189-1.877,2.269,2.269,0,0,1,2.089-.031,2.276,2.276,0,0,1,.936.864.417.417,0,0,1,.027.037c.012.018.035.054.044.073l1.15,2.272a.573.573,0,0,1-.047.615.572.572,0,0,1-.267.2,5.1,5.1,0,0,1-1.786,1.1A3.031,3.031,0,0,1,1180.766-767.757Zm-.162-1.168a1.526,1.526,0,0,0,.8-.12,4.391,4.391,0,0,0,1.285-.742l-.907-1.794a.536.536,0,0,1-.038-.06,1.135,1.135,0,0,0-.485-.466,1.108,1.108,0,0,0-1.031.014,1.115,1.115,0,0,0-.587.932,1.149,1.149,0,0,0,.122.585.514.514,0,0,1,.03.069Z" transform="translate(-1178.491 773.378)" fill="#001ab0"/>
      </g>
      <g id="Grupo_42528" data-name="Grupo 42528" transform="translate(14.832 8.648)">
        <path id="Trazado_46074" data-name="Trazado 46074" d="M1192.3-764.636a.574.574,0,0,1-.406-.169c-.038-.037-.074-.074-.112-.107a1.862,1.862,0,0,0-.193-.144.574.574,0,0,1-.255-.477.58.58,0,0,1,.317-.517.575.575,0,0,1,.6.05c.008,0,.047.026.055.032a2,2,0,0,1,.439.395.575.575,0,0,1-.06.79A.575.575,0,0,1,1192.3-764.636Z" transform="translate(-1191.336 766.112)" fill="#001ab0"/>
      </g>
    </g>
  </g>
</svg>
