<svg xmlns="http://www.w3.org/2000/svg" xmlns:xlink="http://www.w3.org/1999/xlink" width="821" height="735" viewBox="0 0 821 735">
  <defs>
    <filter id="white_bg" x="0" y="0" width="821" height="735" filterUnits="userSpaceOnUse">
      <feOffset dx="4.357" dy="6.709" input="SourceAlpha"/>
      <feGaussianBlur stdDeviation="25" result="blur"/>
      <feFlood flood-opacity="0.271"/>
      <feComposite operator="in" in2="blur"/>
      <feComposite in="SourceGraphic"/>
    </filter>
    <clipPath id="clip-path">
      <rect id="imageMask" width="35" height="40" transform="translate(-0.251 0.264)" fill="#9dba32"/>
    </clipPath>
    <clipPath id="clip-path-2">
      <rect id="white_bg-2" data-name="white bg" width="670" height="585" rx="30" fill="#fff" stroke="rgba(0,0,0,0)" stroke-width="1"/>
    </clipPath>
    <clipPath id="clip-path-3">
      <rect id="mask" width="670" height="45" transform="translate(0 -0.413)" fill="#fff" stroke="#707070" stroke-width="1"/>
    </clipPath>
  </defs>
  <g id="Account_info_1" data-name="Account info 1" transform="translate(71.143 68.791)">
    <g transform="matrix(1, 0, 0, 1, -71.14, -68.79)" filter="url(#white_bg)">
      <path id="white_bg-3" data-name="white bg" d="M61.094,0H608.906C642.647,0,670,15.719,670,35.11V548.89c0,19.391-27.353,35.11-61.094,35.11H61.094C27.353,584,0,568.281,0,548.89V35.11C0,15.719,27.353,0,61.094,0Z" transform="translate(71.14 68.79)" fill="#fff" stroke="rgba(0,0,0,0)" stroke-width="1"/>
    </g>
    <g id="Account_title_number" data-name="Account title + number" transform="translate(34 40)">
      <text id="CAC_21_" data-name="CAC 21%" transform="translate(319 56)" fill="#c4c4c4" font-size="12" font-family="Montserrat-SemiBold, Montserrat" font-weight="600"><tspan x="-25.662" y="0">CAC 21%</tspan></text>
      <text id="Crecimiento_del_m2" data-name="Crecimiento del m2" transform="translate(319 27)" fill="#003987" font-size="28" font-family="Montserrat-Bold, Montserrat" font-weight="700" letter-spacing="0em"><tspan x="-140.174" y="0">Crecimiento del m</tspan><tspan y="0" font-size="16.332" baseline-shift="9.332399639036119">2</tspan></text>
    </g>
    <g id="Pin" transform="translate(252.251 220.736)">
      <g id="bubble">
        <path id="blue_bg" data-name="blue bg" d="M8,0h92a8,8,0,0,1,8,8V28a0,0,0,0,1,0,0H8a8,8,0,0,1-8-8V8A8,8,0,0,1,8,0Z" transform="translate(-0.251 0.264)" fill="#9dba32"/>
        <g id="pointer_mask" data-name="pointer mask" transform="translate(73 13)" clip-path="url(#clip-path)">
          <g id="Group_1" data-name="Group 1" transform="translate(23.577 6.106)">
            <path id="Polygon_1" data-name="Polygon 1" d="M318.125,339.439l-11.761-20.37h23.521Z" transform="translate(-306.365 -319.068)" fill="#9dba32"/>
          </g>
        </g>
      </g>
      <text id="_5.000_m2" data-name="$5.000 m2" transform="translate(26.213 18.474)" fill="#fff" font-size="11" font-family="Montserrat-SemiBold, Montserrat" font-weight="600" letter-spacing="0em"><tspan x="0" y="0">$5.000 m</tspan><tspan y="0" font-size="6.416" baseline-shift="3.6662998971165743">2</tspan></text>
    </g>
    <g id="Chart_mask" data-name="Chart mask" clip-path="url(#clip-path-2)">
      <path id="Blue_bg-2" data-name="Blue bg" d="M676.187,37.074c-11.15,1.557-39.241,2.687-56.159-3.8C592.784,22.829,587.126,1,569.6,1c-28.013,0-39.657,64.425-77.887,63.893-13.237-.19-15.6-8.238-32.517-8.238-26.969.038-34,20.5-52.51,19.627-28.342-1.329-32.846-50.378-65.8-53.8-17.851-1.822-23.289,11.807-45.809,10.744C267.4,31.979,263.441,10.795,241.745,8.555c-39.657-4.1-59.98,63.058-112.491,65.184-31.034,1.253-42.788-21.488-70.8-17.729C29.123,60,11.326,89.039,1,112.349V496.306l52.646,36.085L377.171,365.924,626.19,532.391V474.814l47.056,21.558Z" transform="translate(-2.052 263.283)" fill="rgba(82,60,248,0.15)"/>
      <path id="Chart_line" data-name="Chart line" d="M-.7,118.714a7.118,7.118,0,0,1-1.582-.152c-2.891-.607-4.527-2.733-3.6-4.746C9.83,78.092,42.953,58.5,67.879,55.124c16.418-2.2,27.763,3.379,38.726,8.77,9.818,4.821,19.09,9.415,32.344,8.884,24.326-.987,41.562-18.3,58.2-35.041,16.581-16.7,32.344-32.459,54.653-30.105,11.945,1.253,19.036,7.023,25.908,12.6,7.254,5.884,14.072,11.465,26.617,12.035,9.654.456,15.49-2.354,21.654-5.315,6.382-3.075,13.581-6.53,24.326-5.429,19.745,2.05,30.108,17.35,39.271,30.865,7.8,11.5,15.163,22.361,25.635,22.892,5.727.342,10.2-2.582,17.072-7.251,8.072-5.5,18.054-12.376,34.69-12.376,10.69,0,16.636,2.847,21.49,5.125,3.709,1.784,6.436,3.037,10.909,3.113h.327c16.8,0,29.017-17.767,39.762-33.446C550.044,14.806,560.244,0,576.443,0c11.618,0,18.708,6.871,26.181,14.123,6.709,6.492,14.291,13.895,26.508,18.6,16.418,6.34,36.162,4.48,43.908,3.379,2.945-.418,5.836.911,6.436,2.961s-1.309,4.062-4.254,4.48c-11.072,1.557-32.508,3.075-51.38-4.214-14.4-5.543-23.126-14.009-30.108-20.842-6.982-6.72-11.563-10.9-17.29-10.9-9.327,0-18.49,13.287-27.272,26.157-12.163,17.691-25.908,37.774-49.58,37.774h-.6c-7.745-.114-12.545-2.392-16.854-4.442s-8.018-3.8-15.272-3.8c-12.218,0-19.417,4.973-27.108,10.212-7.145,4.9-14.509,9.871-25.417,9.415-16.854-.8-25.963-14.237-34.8-27.22-8.4-12.376-17.072-25.17-31.035-26.613-6.491-.683-10.691,1.367-16.472,4.138-6.763,3.227-15.163,7.213-28.581,6.644-17.127-.8-26.181-8.162-34.2-14.654-6.054-4.935-11.345-9.225-19.2-10.023C234.455,13.553,220.6,27.41,206.038,42.1c-17.29,17.388-36.871,37.091-66.543,38.268-17.072.759-28.854-5.125-39.271-10.25C90.3,65.222,81.788,61.008,69.9,62.6,49.225,65.412,18.939,83.217,4.485,116.056,3.776,117.689,1.649,118.714-.7,118.714Z" transform="translate(-5.383 263.615)" fill="#003987"/>
    </g>
    <g id="Pointer" transform="translate(335.249 273.646)">
      <circle id="blue_circle" data-name="blue circle" cx="19" cy="19" r="19" transform="translate(-0.249 0.354)" fill="#003987"/>
      <circle id="white_circle" data-name="white circle" cx="7" cy="7" r="7" transform="translate(11.751 12.354)" fill="#fff"/>
    </g>
    <g id="Months" transform="translate(0 504.413)" clip-path="url(#clip-path-3)">
      <rect id="Highlighter" width="91" height="25" rx="8" transform="translate(405 11.587)" fill="#9dba32"/>
      <text id="JAN_FEB_MAR_APR_MAY" data-name="JAN                             FEB                             MAR                             APR                             MAY" transform="translate(-23.29 28.354)" fill="#16110d" font-size="12" font-family="Montserrat-Regular, Montserrat"><tspan x="0" y="0" xml:space="preserve">JAN                             FEB                             </tspan><tspan y="0" fill="#0020ab">MAR </tspan><tspan y="0" xml:space="preserve">                            APR                             MAY</tspan></text>
    </g>
  </g>
</svg>
