<svg xmlns="http://www.w3.org/2000/svg" width="52.411" height="40.02" viewBox="0 0 52.411 40.02">
  <g id="Grupo_42507" data-name="Grupo 42507" transform="translate(-940.227 805.007)">
    <path id="Trazado_46051" data-name="Trazado 46051" d="M992.546-789.209a4.319,4.319,0,0,0-2.269-3.9l-21.82-11.479v.012a4.015,4.015,0,0,0-3.674.033l-22.056,10.868a4.331,4.331,0,0,0-2.233,3.026.8.8,0,0,0-.039.1c-.415,1.522-.15,7.2-.092,8.321a.9.9,0,0,0,.055.265,4.3,4.3,0,0,0,2.218,3.729L965.3-765.547a4.358,4.358,0,0,0,2.127.56,4.383,4.383,0,0,0,2.131-.559l8.16-4.569,12.611-7.573a4.29,4.29,0,0,0,2.08-2.66,2.106,2.106,0,0,0,.138-.631C992.741-784.33,992.567-788.712,992.546-789.209Zm-50.315-1.018a2.545,2.545,0,0,1,1.335-1.87l21.216-10.423v-.007l.573-.276a2.842,2.842,0,0,1,1.337-.335,2.837,2.837,0,0,1,1.363.35l.347.188,21.022,11.062a2.5,2.5,0,0,1,1.331,2.313v.031a2.5,2.5,0,0,1-1.312,2.152l-13.521,8.081-7.242,4.054a2.55,2.55,0,0,1-2.508,0l-22.66-12.688a2.632,2.632,0,0,1-.332-.221A2.549,2.549,0,0,1,942.232-790.227Zm48.526,9.148v.009a.7.7,0,0,1-.04.128.908.908,0,0,0-.029.094,2.539,2.539,0,0,1-1.243,1.6L977.417-772l-8.735,4.89a2.548,2.548,0,0,1-2.508,0L943.512-779.8a2.553,2.553,0,0,1-1.3-2.4.9.9,0,0,0-.076-.417c-.048-1.023-.1-2.482-.115-3.842l.027.022a4.383,4.383,0,0,0,.588.4L965.3-773.344a4.34,4.34,0,0,0,3.217.42c.048-.013.094-.029.141-.045l.067-.023a4.364,4.364,0,0,0,.833-.352l7.848-4.393,11.332-6.852,1.589-.9a4.446,4.446,0,0,0,.513-.335h0C990.86-783.944,990.833-782.352,990.758-781.08Z" transform="translate(0)" fill="#0020ab"/>
    <g id="Grupo_42506" data-name="Grupo 42506" transform="translate(954.829 -795.522)">
      <g id="Grupo_42505" data-name="Grupo 42505" transform="translate(0 0)">
        <path id="Trazado_46052" data-name="Trazado 46052" d="M967.851-779.859a12.3,12.3,0,0,1-2.512-1.949,2.729,2.729,0,0,1-.64-1.044c1.1-.346,1.725-.537,3.045-.928a4.514,4.514,0,0,0,1.078,1.522,12.2,12.2,0,0,0,2.417,1.819,8.522,8.522,0,0,0,2.632,1.178,2.352,2.352,0,0,0,1.609-.225.99.99,0,0,0,.522-.568,1.116,1.116,0,0,0-.107-.748,4.962,4.962,0,0,0-.67-1.009c-.316-.388-.708-.832-1.134-1.319a11.38,11.38,0,0,1-1.061-1.4,2.507,2.507,0,0,1-.434-1.3,1.8,1.8,0,0,1,.493-1.182,5.371,5.371,0,0,1,1.461-1.106,9.032,9.032,0,0,1,1.479-.676,5.535,5.535,0,0,1,1.55-.311,6.25,6.25,0,0,1,1.843.206,15.772,15.772,0,0,1,2.457.872c.672-.4.953-.571,1.342-.815,1.51.77,2.381,1.208,3.859,1.959-.411.251-.7.421-1.372.819a14.538,14.538,0,0,1,2.024,1.381,2.346,2.346,0,0,1,.686.819c-1.055.433-1.675.68-2.992,1.186a4.38,4.38,0,0,0-1.128-1.295,14.562,14.562,0,0,0-2.33-1.555,7.5,7.5,0,0,0-2.357-.933,2.248,2.248,0,0,0-1.5.195.9.9,0,0,0-.44.465.784.784,0,0,0,.1.608,4.833,4.833,0,0,0,.573.811c.257.307.593.669.968,1.081a8.575,8.575,0,0,1,1.28,1.77,2.278,2.278,0,0,1,.279,1.479,2.508,2.508,0,0,1-.759,1.27A7.887,7.887,0,0,1,978.5-777.6a8.772,8.772,0,0,1-1.383.658,4.72,4.72,0,0,1-1.5.3,6,6,0,0,1-1.807-.248,14.626,14.626,0,0,1-2.441-.975c-.757.424-1.063.595-1.434.8-1.371-.747-2.139-1.162-3.536-1.923C966.8-779.236,967.1-779.42,967.851-779.859Z" transform="translate(-964.699 789.111)" fill="#0020ab"/>
      </g>
    </g>
  </g>
</svg>
