<svg id="Grupo_10676" data-name="Grupo 10676" xmlns="http://www.w3.org/2000/svg" width="28.187" height="25.985" viewBox="0 0 28.187 25.985">
  <path id="Trazado_5074" data-name="Trazado 5074" d="M231.242,432.186a5.843,5.843,0,0,0-1.688-4.1,4.355,4.355,0,0,0-5.759-5.375,5.832,5.832,0,0,0-10.01-2.509,5.025,5.025,0,0,0-8.732,4.673,6.769,6.769,0,0,0-1.43,7.516.551.551,0,1,0,1.008-.442,5.668,5.668,0,0,1,1.432-6.513.55.55,0,0,0,.142-.626,3.923,3.923,0,0,1,6.9-3.674,5.8,5.8,0,0,0-.81,2.962v4.228l-1.92,1.92v-4.661a.551.551,0,1,0-1.1,0v2.672l-1.062-1.062a.551.551,0,0,0-.779.779l1.841,1.841v5.5a5.616,5.616,0,0,1-1.419-.324.551.551,0,0,0-.383,1.032,6.716,6.716,0,0,0,1.8.4v3.35a3.123,3.123,0,0,0-4.123,4.163.55.55,0,0,0,.5.318H228.46a.551.551,0,0,0,0-1.1h-2.5V438a5.843,5.843,0,0,0,5.285-5.809Zm-5.836-8.688a3.256,3.256,0,0,1,3,4.518.55.55,0,0,0,.142.626,4.734,4.734,0,0,1-2.589,8.245v-1.946l1.916-1.916a.551.551,0,0,0-.779-.779l-1.137,1.137v-3.765a.551.551,0,0,0-1.1,0v2.073l-.894-.894v-6.7c0-.085,0-.169-.006-.254a3.247,3.247,0,0,1,1.451-.341Zm-1.482,8.819.931.932v3.638a4.751,4.751,0,0,1-2.567-1.14,5.823,5.823,0,0,0,1.636-3.43Zm-5.8-12.959a4.74,4.74,0,0,1,4.735,4.735v7.569a4.74,4.74,0,0,1-4.184,4.7v-1.946l1.916-1.916a.551.551,0,0,0-.779-.779l-1.137,1.138V429.1a.551.551,0,0,0-1.1,0v2.073l-.763-.763a.551.551,0,0,0-.779.779l1.541,1.541v3.638a4.741,4.741,0,0,1-4.184-4.7v-7.569a4.74,4.74,0,0,1,4.735-4.735Zm-1.457,20.125a3.136,3.136,0,0,0-.973.155,3.494,3.494,0,0,0-5.325-.82v-2.407a6.661,6.661,0,0,0,3.2-1.11,5.833,5.833,0,0,0,4.007,2.17v2.146a3.114,3.114,0,0,0-.907-.134Zm-4.379-9.605v1.784a5.8,5.8,0,0,0,.674,2.719,5.577,5.577,0,0,1-2.594.925V431.8Zm-6.336,12.727a2.021,2.021,0,0,1,3.459-1.42.55.55,0,0,0,.929-.268,2.415,2.415,0,0,1,2.345-1.882,2.39,2.39,0,0,1,2.233,1.518.55.55,0,0,0,.777.28,2.022,2.022,0,0,1,2.92,2.309H206.027a2.009,2.009,0,0,1-.072-.536Zm13.79.536a3.116,3.116,0,0,0-1.068-2.924v-2.745a5.8,5.8,0,0,0,2.762-1.008A5.852,5.852,0,0,0,224.856,438v5.147Zm0,0" transform="translate(-203.055 -418.258)" fill="#0150f4"/>
  <path id="Trazado_5075" data-name="Trazado 5075" d="M230.561,628.741a.55.55,0,1,0-.389.161.555.555,0,0,0,.389-.161Zm0,0" transform="translate(-227.671 -612.42)" fill="#0150f4"/>
</svg>
