<svg xmlns="http://www.w3.org/2000/svg" width="71.172" height="66.136" viewBox="0 0 71.172 66.136">
  <path id="Trazado_5073" data-name="Trazado 5073" d="M165.306,148.131h0a19.52,19.52,0,0,0-14.26,6.214l-1.257,1.328-1.257-1.328a19.461,19.461,0,0,0-27.5-1.01q-.524.486-1.01,1.01a21.827,21.827,0,0,0,0,29.679l27.924,29.448a2.544,2.544,0,0,0,3.6.1q.05-.047.1-.1l27.914-29.448a21.825,21.825,0,0,0,0-29.677A19.5,19.5,0,0,0,165.306,148.131Zm10.561,32.391-7.983,8.42-18.095,19.085-26.08-27.5a16.679,16.679,0,0,1,0-22.676,14.377,14.377,0,0,1,20.315-.817q.425.392.817.817l3.1,3.271a2.62,2.62,0,0,0,3.693,0l3.1-3.269a14.377,14.377,0,0,1,20.315-.817q.425.392.817.817h0a16.526,16.526,0,0,1,0,22.674Z" transform="translate(-114.198 -148.13)" fill="#7f08f9"/>
</svg>
