<svg xmlns="http://www.w3.org/2000/svg" width="280.245" height="99.87" viewBox="0 0 280.245 99.87">
  <g id="Grupo_10639" data-name="Grupo 10639" transform="translate(-352.439 -468.956)">
    <path id="Trazado_4996" data-name="Trazado 4996" d="M684.467,506.436a11.667,11.667,0,0,0-3.092-8.361,17.954,17.954,0,0,0-7.637-4.736,92.282,92.282,0,0,0-9.17-2.41,47.088,47.088,0,0,1-7.974-2.3c-2.441-.985-3.68-2.378-3.68-4.143a4.473,4.473,0,0,1,2.535-3.885,13.175,13.175,0,0,1,6.667-1.413,18.847,18.847,0,0,1,9.618,2.835c.105.051.511.29,1.17.69.622.382,1.121.674,1.5.881a9.668,9.668,0,0,0,1.382.591,4.557,4.557,0,0,0,1.524.28,4.655,4.655,0,0,0,3.777-1.564,5.482,5.482,0,0,0,1.374-3.693c0-2.342-1.845-4.62-5.484-6.771-3.751-2.216-8.718-3.339-14.758-3.339-5.942,0-10.918,1.533-14.793,4.559-3.826,2.985-5.765,6.63-5.765,10.829a12.976,12.976,0,0,0,3.007,8.8,16.426,16.426,0,0,0,7.412,4.927,84.863,84.863,0,0,0,9.061,2.409,47.2,47.2,0,0,1,7.864,2.249c2.373.948,3.579,2.324,3.579,4.088s-.981,3.085-2.915,3.971a17.094,17.094,0,0,1-7.026,1.221,15.97,15.97,0,0,1-7.1-1.492,49.115,49.115,0,0,1-5.079-2.835,6.727,6.727,0,0,0-3.549-1.266,5.382,5.382,0,0,0-5.466,5.573c0,2.407,2.017,4.753,6,6.974a30.668,30.668,0,0,0,15.088,3.452,26.846,26.846,0,0,0,15.564-4.474c4.283-2.958,6.365-6.769,6.365-11.651" transform="translate(-73.098 -0.036)" fill="#0150f4"/>
    <path id="Trazado_4997" data-name="Trazado 4997" d="M723.43,476.471a6.1,6.1,0,0,0-12.2,0v40.312a6.1,6.1,0,0,0,12.2,0Z" transform="translate(-90.746 -0.357)" fill="#0150f4"/>
    <g id="Grupo_10638" data-name="Grupo 10638" transform="translate(352.439 468.956)">
      <path id="Trazado_4998" data-name="Trazado 4998" d="M471.467,477.907c0-2.205-1.527-4.254-4.54-6.09a21.38,21.38,0,0,0-11.27-2.859,23.487,23.487,0,0,0-23.406,23.3v24.166a6.1,6.1,0,0,0,12.2,0V490.887a10.486,10.486,0,0,1,3.2-7.747,10.877,10.877,0,0,1,7.9-3.141,11.671,11.671,0,0,1,6.033,1.727A9.107,9.107,0,0,0,466,483.27a5.314,5.314,0,0,0,3.871-1.557A5.056,5.056,0,0,0,471.467,477.907Z" transform="translate(-372.625 -468.957)" fill="#fff"/>
      <path id="Trazado_4999" data-name="Trazado 4999" d="M508.085,468.957a26.548,26.548,0,0,0-19.225,7.728,25.624,25.624,0,0,0-7.877,18.951,26.739,26.739,0,0,0,27.1,26.89,26.321,26.321,0,0,0,19.169-7.883,25.944,25.944,0,0,0,7.931-19.007,25.588,25.588,0,0,0-7.929-18.9A26.5,26.5,0,0,0,508.085,468.957Zm10.976,37.892a15.2,15.2,0,0,1-22.059,0,15.867,15.867,0,0,1-4.452-11.213,15.28,15.28,0,0,1,4.514-11.009A14.878,14.878,0,0,1,508.085,480a14.7,14.7,0,0,1,10.97,4.633,15.371,15.371,0,0,1,4.458,11.005A15.874,15.874,0,0,1,519.061,506.849Z" transform="translate(-384.95 -468.956)" fill="#fff"/>
      <path id="Trazado_5000" data-name="Trazado 5000" d="M609,476.78a24.884,24.884,0,0,0-18.422-7.823,22.03,22.03,0,0,0-14.666,5.541.653.653,0,0,1-1.079-.5,4.867,4.867,0,0,0-1.653-3.391,5.436,5.436,0,0,0-4.024-1.655,6.2,6.2,0,0,0-6.1,6.1v64.585a6.1,6.1,0,0,0,12.2,0V517.587a.653.653,0,0,1,1.106-.47,19.2,19.2,0,0,0,13.795,5.41,26.64,26.64,0,0,0,26.467-26.68A26.425,26.425,0,0,0,609,476.78Zm-8.458,30.077a14.871,14.871,0,0,1-11.017,4.63,14.652,14.652,0,0,1-11.137-4.586,15.626,15.626,0,0,1-4.293-11.055,16.132,16.132,0,0,1,4.288-11.257,14.493,14.493,0,0,1,11.141-4.7,14.674,14.674,0,0,1,11.081,4.743,15.875,15.875,0,0,1,4.45,11.211A15.28,15.28,0,0,1,600.54,506.857Z" transform="translate(-405.708 -468.956)" fill="#fff"/>
      <path id="Trazado_5001" data-name="Trazado 5001" d="M379.963,468.957A22.019,22.019,0,0,0,365.3,474.5a.653.653,0,0,1-1.078-.5,4.679,4.679,0,0,0-1.43-3.156,5.716,5.716,0,0,0-4.16-1.889,6.193,6.193,0,0,0-6.189,6.1v87.667a6.106,6.106,0,0,0,12.1,1.1h.155V562.54h7.714a4.909,4.909,0,0,0,0-9.817H364.64v-3.945h.053v-1.663h3.638a4.909,4.909,0,0,0,0-9.817H364.64V489.575a16.034,16.034,0,0,1,3.127-4.986,14.493,14.493,0,0,1,11.14-4.7,14.7,14.7,0,0,1,11.308,4.987,16.371,16.371,0,0,1,4.216,10.385A15.607,15.607,0,0,1,378.9,511.486a16.91,16.91,0,0,1-2.085-.125,5.077,5.077,0,0,0-5.792,4.994v.339a5.5,5.5,0,0,0,4.308,5.4,20.5,20.5,0,0,0,4.208.429,26.64,26.64,0,0,0,26.467-26.68,26.427,26.427,0,0,0-7.623-19.066A24.888,24.888,0,0,0,379.963,468.957Z" transform="translate(-352.439 -468.956)" fill="#fff"/>
    </g>
  </g>
</svg>
