<svg xmlns="http://www.w3.org/2000/svg" width="218.114" height="33.496" viewBox="0 0 218.114 33.496">
  <g id="Grupo_41718" data-name="Grupo 41718" transform="translate(-321.123 429.842)">
    <g id="Grupo_41715" data-name="Grupo 41715" transform="translate(321.123 -425.588)">
      <path id="Trazado_41427" data-name="Trazado 41427" d="M333.605-408.033h.006l10.733,4.366,2.251.916a.446.446,0,0,0,.441,0l10.111-4.119,1.378-.561.909-.371a.168.168,0,0,0,0-.292l-12.4-5.05c-.005,0-.011,0-.016,0l-1.595-.647-11.379,4.635a.446.446,0,0,1-.441,0l-11.379-4.635-1.018.415a.168.168,0,0,0,0,.293Z" transform="translate(-321.123 421.199)" fill="#9dba32"/>
      <path id="Trazado_41428" data-name="Trazado 41428" d="M322.117-418.216l1.378.561,10.111,4.119a.446.446,0,0,0,.441,0l10.111-4.119,1.378-.561.908-.37a.167.167,0,0,0,0-.292l-12.4-5.05a.446.446,0,0,0-.441,0l-12.4,5.05a.167.167,0,0,0,0,.292Z" transform="translate(-321.123 423.987)" fill="#9dba32"/>
      <path id="Trazado_41429" data-name="Trazado 41429" d="M358.435-402.784l-11.379,4.635a.446.446,0,0,1-.441,0l-11.379-4.635-1.018.415,0,0-12.642,5.187-.288.117a.168.168,0,0,0,0,.293l.908.37,1.378.562,10.111,4.119a.45.45,0,0,0,.441,0l10.111-4.119.175-.072h0l.145-.059h0l1.052-.429.908-.37s0-.006,0-.007l12.7-5.208h0l.228-.093a.169.169,0,0,0,0-.293Z" transform="translate(-321.145 418.188)" fill="#9dba32"/>
      <path id="Trazado_41430" data-name="Trazado 41430" d="M345.5-391.741l-11.379,4.635a.45.45,0,0,1-.441,0l-11.379-4.635-1.019.415a.168.168,0,0,0,0,.293l12.4,5.05a.45.45,0,0,0,.441,0l12.4-5.05a.168.168,0,0,0,0-.293Z" transform="translate(-321.145 415.168)" fill="#9dba32"/>
    </g>
    <g id="Grupo_41717" data-name="Grupo 41717" transform="translate(371.558 -429.842)">
      <g id="Grupo_41716" data-name="Grupo 41716" transform="translate(18.112)">
        <path id="Trazado_41431" data-name="Trazado 41431" d="M513.818-408.2c0-6.781-4.051-11.974-11.745-11.974a12.726,12.726,0,0,0-12.981,13.064c0,8.294,6.053,13.093,13.831,13.093a19.087,19.087,0,0,0,9.891-2.917l-2.452-4.457a13.726,13.726,0,0,1-6.427,1.733c-4.082,0-6.7-1.636-7.435-5.229h17.01A21.274,21.274,0,0,0,513.818-408.2Zm-17.233-1.647c.749-3.117,2.835-4.7,5.733-4.7,2.87,0,4.563,1.612,4.94,4.7Z" transform="translate(-435.608 427.197)" fill="#fff"/>
        <path id="Trazado_41432" data-name="Trazado 41432" d="M545.839-420.172a11.6,11.6,0,0,0-10.116,6.06h-.172l-.585-5.457h-6.083v24.951h7.4V-407.6c2.156-4.476,5.336-6.084,8.426-6.084a11.978,11.978,0,0,1,2.928.325v-6.7A13.242,13.242,0,0,0,545.839-420.172Z" transform="translate(-446.49 427.197)" fill="#fff"/>
        <path id="Trazado_41433" data-name="Trazado 41433" d="M577.324-420.172a11.6,11.6,0,0,0-10.117,6.06h-.172l-.584-5.457h-6.083v24.951h7.4V-407.6c2.156-4.476,5.336-6.084,8.425-6.084a11.969,11.969,0,0,1,2.928.325v-6.7A13.221,13.221,0,0,0,577.324-420.172Z" transform="translate(-455.101 427.197)" fill="#fff"/>
        <path id="Trazado_41434" data-name="Trazado 41434" d="M431.211-419.311l0-.031H415.474v24.951h7.4v-15.082h0V-413l1.189-.007,3.556-.019,0,.007c.106,0,.2-.017.307-.017,2.7,0,3.659,1.474,3.659,4.795v13.85h7.405v-14.8C438.988-415.348,436.59-419.145,431.211-419.311Z" transform="translate(-415.474 426.97)" fill="#fff"/>
        <path id="Trazado_41435" data-name="Trazado 41435" d="M475.213-403.363a14.716,14.716,0,0,1-4.926.889c-3.64,0-5.244-1.428-5.244-5.224v-8.714h10.52v-5.8h-10.52v-7.628h-6.478l-.6,7.628.016-.051-.007.051-6.62.288v5.514h6.286v8.809c0,6.544,2.823,10.943,10.762,10.943a27.311,27.311,0,0,0,8.154-1.349Z" transform="translate(-425.287 429.842)" fill="#fff"/>
      </g>
      <path id="Trazado_41436" data-name="Trazado 41436" d="M390.544-413.541h3.221v19.15h7.4v-24.951H390.544Z" transform="translate(-390.544 426.97)" fill="#fff"/>
      <path id="Trazado_41437" data-name="Trazado 41437" d="M396.046-429.8a.428.428,0,0,0-.379,0l-5.054,2.529a.115.115,0,0,0,0,.211l1.1.55,1.31.655,2.645,1.324a.428.428,0,0,0,.379,0l2.644-1.324,1.31-.655,1.1-.55a.115.115,0,0,0,0-.211Z" transform="translate(-390.544 429.842)" fill="#fff"/>
      <path id="Trazado_41438" data-name="Trazado 41438" d="M609.3-417.215a10.139,10.139,0,0,0-6.735-3.039,57.6,57.6,0,0,0-8.321-.105,32.557,32.557,0,0,0-3.665.4v1.284l-.035,3.735,0,.261,0,.276-.011,1.2s.185-.074.5-.182a18.914,18.914,0,0,1,3.166-.749l.028-.005c.221-.027.463-.052.707-.075q.486-.048,1.04-.084l.23-.017c.565-.033,1.2-.051,1.874-.06a13.2,13.2,0,0,1,3.475.426c.061.02.122.043.182.065a5.064,5.064,0,0,1,.6.24,5.908,5.908,0,0,1,.991.562c.064.044.122.094.184.14a4.993,4.993,0,0,1,.441.381,5.988,5.988,0,0,1,.962,1.256c.007.015.017.027.025.042a8.6,8.6,0,0,1,.6,2.06l-8.537.115h-2.406l-3.847.036h0l-1.029.014a13.655,13.655,0,0,0-.057,8.924q.1.316.228.625a8.692,8.692,0,0,0,4.053,4.7,6.819,6.819,0,0,0,.656.3l.121.047a9.191,9.191,0,0,0,3.309.652h.153c.048,0,.1,0,.145,0,.146,0,.334-.009.577-.025s.5-.038.745-.069l.1-.012c.226-.026.447-.068.678-.106.042-.007.084-.012.126-.02.209-.036.419-.083.641-.132.044-.011.088-.017.133-.028.019,0,.036-.013.054-.018l.071-.02a11.333,11.333,0,0,0,2.46-.877,9.927,9.927,0,0,0,2.113-1.61L606-395.39l-.015.91v.191l6.5-.016v-14.261C612.483-412.5,611.346-415.35,609.3-417.215Zm-4.225,13.907c-.022.055-.041.112-.063.165a5.326,5.326,0,0,1-4.687,3.5c-.2.016-.4.042-.6.042a5.677,5.677,0,0,1-3.418-.871,4.171,4.171,0,0,1-.7-.735,6.049,6.049,0,0,1-1.1-2.976h.976l2.339-.04,7.258-.079h.262A3.457,3.457,0,0,1,605.078-403.308Z" transform="translate(-444.803 427.276)" fill="#fff"/>
    </g>
  </g>
</svg>
