<svg xmlns="http://www.w3.org/2000/svg" width="180.229" height="64.228" viewBox="0 0 180.229 64.228">
  <g id="Grupo_10718" data-name="Grupo 10718" transform="translate(-352.439 -468.956)">
    <path id="Trazado_4996" data-name="Trazado 4996" d="M669.116,493.111a7.5,7.5,0,0,0-1.989-5.377,11.546,11.546,0,0,0-4.911-3.046,59.353,59.353,0,0,0-5.9-1.55,30.289,30.289,0,0,1-5.128-1.48c-1.57-.633-2.367-1.529-2.367-2.664a2.877,2.877,0,0,1,1.63-2.5,8.473,8.473,0,0,1,4.288-.909,12.12,12.12,0,0,1,6.185,1.823c.068.033.329.186.752.444.4.246.721.433.966.566a6.222,6.222,0,0,0,.889.38,2.931,2.931,0,0,0,.98.18,2.994,2.994,0,0,0,2.429-1.006,3.525,3.525,0,0,0,.884-2.375c0-1.506-1.186-2.971-3.527-4.355a18.6,18.6,0,0,0-9.491-2.148,15.058,15.058,0,0,0-9.513,2.932,8.635,8.635,0,0,0-3.708,6.964,8.345,8.345,0,0,0,1.934,5.662,10.564,10.564,0,0,0,4.767,3.169,54.58,54.58,0,0,0,5.827,1.549,30.35,30.35,0,0,1,5.058,1.447c1.526.61,2.3,1.495,2.3,2.629A2.753,2.753,0,0,1,659.6,496a10.992,10.992,0,0,1-4.519.785,10.27,10.27,0,0,1-4.563-.959,31.6,31.6,0,0,1-3.267-1.823,4.326,4.326,0,0,0-2.283-.814,3.462,3.462,0,0,0-3.515,3.584c0,1.548,1.3,3.057,3.857,4.485a19.723,19.723,0,0,0,9.7,2.22,17.265,17.265,0,0,0,10.009-2.877,8.634,8.634,0,0,0,4.093-7.493" transform="translate(-150.156 -0.074)" fill="#fff"/>
    <path id="Trazado_4997" data-name="Trazado 4997" d="M719.076,474.293a3.923,3.923,0,0,0-7.847,0v25.925a3.923,3.923,0,0,0,7.847,0Z" transform="translate(-186.408 -0.734)" fill="#fff"/>
    <g id="Grupo_10638" data-name="Grupo 10638" transform="translate(352.439 468.956)">
      <path id="Trazado_4998" data-name="Trazado 4998" d="M457.471,474.713c0-1.418-.982-2.736-2.92-3.917a13.749,13.749,0,0,0-7.248-1.839,15.1,15.1,0,0,0-15.053,14.986v15.541a3.923,3.923,0,0,0,7.846,0V483.061a6.743,6.743,0,0,1,2.06-4.982,7,7,0,0,1,5.079-2.02,7.506,7.506,0,0,1,3.88,1.11,5.857,5.857,0,0,0,2.839.993,3.418,3.418,0,0,0,2.49-1A3.252,3.252,0,0,0,457.471,474.713Z" transform="translate(-393.905 -468.957)" fill="#fff"/>
      <path id="Trazado_4999" data-name="Trazado 4999" d="M498.412,468.957a17.073,17.073,0,0,0-12.364,4.97,16.479,16.479,0,0,0-5.066,12.188,17.2,17.2,0,0,0,17.43,17.293,16.928,16.928,0,0,0,12.328-5.07,16.685,16.685,0,0,0,5.1-12.224,16.456,16.456,0,0,0-5.1-12.153A17.044,17.044,0,0,0,498.412,468.957Zm7.059,24.369a9.772,9.772,0,0,1-14.186,0,10.2,10.2,0,0,1-2.863-7.211,9.826,9.826,0,0,1,2.9-7.08,9.568,9.568,0,0,1,7.088-2.977,9.455,9.455,0,0,1,7.055,2.979,9.885,9.885,0,0,1,2.867,7.078A10.209,10.209,0,0,1,505.471,493.326Z" transform="translate(-419.223 -468.957)" fill="#fff"/>
      <path id="Trazado_5000" data-name="Trazado 5000" d="M592.6,473.988a16,16,0,0,0-11.847-5.031,14.167,14.167,0,0,0-9.432,3.564.42.42,0,0,1-.694-.319,3.13,3.13,0,0,0-1.063-2.181,3.5,3.5,0,0,0-2.588-1.064,3.984,3.984,0,0,0-3.924,3.923v41.535a3.924,3.924,0,0,0,7.847,0V500.231a.42.42,0,0,1,.711-.3,12.348,12.348,0,0,0,8.872,3.479A17.133,17.133,0,0,0,597.5,486.25,16.994,16.994,0,0,0,592.6,473.988Zm-5.439,19.343a9.564,9.564,0,0,1-7.085,2.977,9.423,9.423,0,0,1-7.162-2.949,10.049,10.049,0,0,1-2.761-7.109,10.375,10.375,0,0,1,2.758-7.239,9.321,9.321,0,0,1,7.165-3.021,9.437,9.437,0,0,1,7.126,3.05,10.209,10.209,0,0,1,2.862,7.21A9.827,9.827,0,0,1,587.161,493.331Z" transform="translate(-461.862 -468.957)" fill="#fff"/>
      <path id="Trazado_5001" data-name="Trazado 5001" d="M370.14,468.957a14.16,14.16,0,0,0-9.432,3.564.42.42,0,0,1-.693-.32,3.009,3.009,0,0,0-.92-2.029,3.676,3.676,0,0,0-2.676-1.215,3.983,3.983,0,0,0-3.98,3.924V529.26a3.927,3.927,0,0,0,7.781.705h.1v-.824h4.961a3.157,3.157,0,0,0,0-6.314h-4.995V520.29h.034v-1.07h2.339a3.157,3.157,0,0,0,0-6.314h-2.373v-30.69a10.312,10.312,0,0,1,2.011-3.207,9.32,9.32,0,0,1,7.164-3.022,9.457,9.457,0,0,1,7.272,3.207,10.528,10.528,0,0,1,2.711,6.679,10.037,10.037,0,0,1-9.987,10.433,10.871,10.871,0,0,1-1.341-.08,3.265,3.265,0,0,0-3.725,3.212v.218a3.534,3.534,0,0,0,2.771,3.475,13.181,13.181,0,0,0,2.706.276A17.133,17.133,0,0,0,386.89,486.25a17,17,0,0,0-4.9-12.262A16.006,16.006,0,0,0,370.14,468.957Z" transform="translate(-352.439 -468.956)" fill="#fff"/>
    </g>
  </g>
</svg>
