<svg id="Grupo_2345" data-name="Grupo 2345" xmlns="http://www.w3.org/2000/svg" xmlns:xlink="http://www.w3.org/1999/xlink" width="347.5" height="155.929" viewBox="0 0 347.5 155.929">
  <defs>
    <clipPath id="clip-path">
      <rect id="Rectángulo_181" data-name="Rectángulo 181" width="347.5" height="155.929" fill="none"/>
    </clipPath>
    <clipPath id="clip-path-2">
      <path id="Trazado_3962" data-name="Trazado 3962" d="M23.091,38.936c-4.048,3.759-37.36,21.687-11.915,66.217L44.489,72.769l33.83,31.517s18.217-17.06,2.314-49.445C72.319,37.911,58.077,33.308,45.8,33.307c-11.208,0-20.778,3.836-22.709,5.629" transform="translate(-1.683 -33.307)" fill="none"/>
    </clipPath>
    <clipPath id="clip-path-3">
      <path id="Trazado_3968" data-name="Trazado 3968" d="M1.083,76.807A43.373,43.373,0,1,0,44.456,33.434,43.373,43.373,0,0,0,1.083,76.807" transform="translate(-1.083 -33.434)" fill="none"/>
    </clipPath>
  </defs>
  <g id="Grupo_2338" data-name="Grupo 2338">
    <g id="Grupo_2337" data-name="Grupo 2337" clip-path="url(#clip-path)">
      <path id="Trazado_3952" data-name="Trazado 3952" d="M44.53,121.411a44.53,44.53,0,1,1,44.53-44.53,44.581,44.581,0,0,1-44.53,44.53m0-86.747A42.216,42.216,0,1,0,86.747,76.881,42.264,42.264,0,0,0,44.53,34.665" transform="translate(0 2.206)" fill="#fff"/>
    </g>
  </g>
  <g id="Grupo_2340" data-name="Grupo 2340" transform="translate(1.797 35.579)">
    <g id="Grupo_2339" data-name="Grupo 2339" clip-path="url(#clip-path-2)">
      <path id="Trazado_3953" data-name="Trazado 3953" d="M44.449,64.841h0a1.155,1.155,0,0,1-.817-.339L.766,21.637A1.157,1.157,0,0,1,2.4,20L44.449,62.049,87.075,19.424a1.156,1.156,0,0,1,1.635,1.635L45.267,64.5a1.16,1.16,0,0,1-.818.339" transform="translate(-1.768 -34.277)" fill="#fff"/>
      <path id="Trazado_3954" data-name="Trazado 3954" d="M44.449,75.2h0a1.155,1.155,0,0,1-.817-.339L.766,31.991A1.157,1.157,0,0,1,2.4,30.356L44.449,72.4,87.075,29.778a1.156,1.156,0,0,1,1.635,1.635L45.267,74.857a1.16,1.16,0,0,1-.818.339" transform="translate(-1.768 -33.571)" fill="#fff"/>
      <path id="Trazado_3955" data-name="Trazado 3955" d="M44.683,54.451h0a1.159,1.159,0,0,1-.819-.344L1.572,11.241A1.157,1.157,0,0,1,3.219,9.616L44.688,51.653,86.152,10.189a1.157,1.157,0,1,1,1.635,1.636L45.5,54.112a1.16,1.16,0,0,1-.818.339" transform="translate(-1.713 -34.946)" fill="#fff"/>
      <path id="Trazado_3956" data-name="Trazado 3956" d="M44.683,44.6a1.16,1.16,0,0,1-.818-.339L1.578,1.975A1.157,1.157,0,0,1,3.214.339l41.469,41.47L86.152.339a1.157,1.157,0,0,1,1.635,1.636L45.5,44.262a1.16,1.16,0,0,1-.818.339" transform="translate(-1.713 -35.579)" fill="#fff"/>
      <path id="Trazado_3957" data-name="Trazado 3957" d="M44.449,104.633h0a1.155,1.155,0,0,1-.817-.339L.766,61.429A1.157,1.157,0,1,1,2.4,59.794l42.047,42.048L87.075,59.215a1.157,1.157,0,0,1,1.635,1.636L45.267,104.295a1.16,1.16,0,0,1-.818.339" transform="translate(-1.768 -31.563)" fill="#fff"/>
      <path id="Trazado_3958" data-name="Trazado 3958" d="M44.449,115.466.766,71.783A1.157,1.157,0,0,1,2.4,70.148L44.449,112.2,87.075,69.569A1.156,1.156,0,0,1,88.711,71.2Z" transform="translate(-1.768 -30.857)" fill="#fff"/>
      <path id="Trazado_3959" data-name="Trazado 3959" d="M44.449,125.82.766,82.137A1.157,1.157,0,0,1,2.4,80.5l42.047,42.048L87.075,79.923a1.156,1.156,0,0,1,1.635,1.635Z" transform="translate(-1.768 -30.151)" fill="#fff"/>
      <path id="Trazado_3960" data-name="Trazado 3960" d="M44.683,94.243h0a1.156,1.156,0,0,1-.819-.345L1.572,51.033a1.157,1.157,0,0,1,1.647-1.625L44.688,91.445,86.152,49.981a1.157,1.157,0,0,1,1.635,1.636L45.5,93.9a1.16,1.16,0,0,1-.818.339" transform="translate(-1.713 -32.232)" fill="#fff"/>
      <path id="Trazado_3961" data-name="Trazado 3961" d="M44.683,84.393a1.16,1.16,0,0,1-.818-.339L1.578,41.766a1.157,1.157,0,0,1,1.636-1.635L44.683,81.6l41.47-41.47a1.156,1.156,0,0,1,1.635,1.635L45.5,84.054a1.16,1.16,0,0,1-.818.339" transform="translate(-1.713 -32.865)" fill="#fff"/>
    </g>
  </g>
  <g id="Grupo_2342" data-name="Grupo 2342" transform="translate(1.157 35.714)">
    <g id="Grupo_2341" data-name="Grupo 2341" clip-path="url(#clip-path-3)">
      <path id="Trazado_3963" data-name="Trazado 3963" d="M1.366,133.26a1.157,1.157,0,0,1-.818-1.975L43.991,87.843a1.157,1.157,0,0,1,1.636,0l42.865,42.865a1.156,1.156,0,0,1-1.635,1.635L44.81,90.3,2.184,132.922a1.157,1.157,0,0,1-.818.339" transform="translate(-1.143 -29.746)" fill="#fff"/>
      <path id="Trazado_3964" data-name="Trazado 3964" d="M1.366,123.515a1.156,1.156,0,0,1-.818-1.974L43.991,78.1a1.157,1.157,0,0,1,1.636,0l42.865,42.865a1.157,1.157,0,0,1-1.635,1.636L44.81,80.551,2.184,123.177a1.152,1.152,0,0,1-.818.339" transform="translate(-1.143 -30.411)" fill="#fff"/>
      <path id="Trazado_3965" data-name="Trazado 3965" d="M1.366,114.817a1.157,1.157,0,0,1-.812-1.98L44,69.971a1.156,1.156,0,0,1,1.624,0l42.866,42.287a1.156,1.156,0,0,1-1.624,1.646L44.81,72.42,2.178,114.483a1.152,1.152,0,0,1-.812.333" transform="translate(-1.143 -30.965)" fill="#fff"/>
      <path id="Trazado_3966" data-name="Trazado 3966" d="M86.753,141.849a1.157,1.157,0,0,1-.818-.339L44.466,100.04,3,141.51a1.156,1.156,0,1,1-1.635-1.635L43.648,97.587a1.159,1.159,0,0,1,1.636,0l42.287,42.288a1.156,1.156,0,0,1-.818,1.974" transform="translate(-1.087 -29.082)" fill="#fff"/>
      <path id="Trazado_3967" data-name="Trazado 3967" d="M84.79,148.705a1.154,1.154,0,0,1-.819-.34L44.45,108.7,4.717,147.865a1.156,1.156,0,0,1-1.624-1.647l40.551-39.974a1.16,1.16,0,0,1,1.632.007l40.333,40.482a1.156,1.156,0,0,1-.819,1.973" transform="translate(-0.969 -28.491)" fill="#fff"/>
    </g>
  </g>
  <g id="Grupo_2344" data-name="Grupo 2344">
    <g id="Grupo_2343" data-name="Grupo 2343" clip-path="url(#clip-path)">
      <path id="Trazado_3969" data-name="Trazado 3969" d="M302.325,80.938l5.022-4.465a9.25,9.25,0,0,0,7.442,3.536c2.418,0,3.969-1.055,3.969-2.915,0-4.961-15.317-3.039-15.317-14.572,0-6.015,5.146-9.612,11.781-9.612,6.139,0,9.55,3.225,11.1,5.768l-5.642,4.216a7.332,7.332,0,0,0-5.828-3.1c-1.986,0-3.35.991-3.35,2.6,0,5.147,15.379,2.666,15.379,14.262,0,6.325-5.456,10.293-12.465,10.293-6.386,0-10.354-3.224-12.091-6.014" transform="translate(20.619 3.609)" fill="#fff"/>
      <path id="Trazado_3970" data-name="Trazado 3970" d="M116.14,52.909c9.92,0,17.485,7.317,17.485,17.114s-7.316,16.929-17.485,16.929c-10.108,0-17.425-7.13-17.425-16.929,0-9.858,7.565-17.114,17.425-17.114m0,26.478c5.147,0,8.928-3.844,8.928-9.364s-3.781-9.55-8.928-9.55-8.868,3.969-8.868,9.55c0,5.519,3.783,9.364,8.868,9.364" transform="translate(6.733 3.609)" fill="#fff"/>
      <path id="Trazado_3971" data-name="Trazado 3971" d="M153.288,61.59c-6.387,0-8.743,3.968-8.743,10.417V86.145h-8.557V53.715h8.372v4.712a9.435,9.435,0,0,1,8.929-5.518Z" transform="translate(9.275 3.609)" fill="#fff"/>
      <path id="Trazado_3972" data-name="Trazado 3972" d="M160.7,41.937h8.99l-6.015,8.929h-7.13Zm-3.785,12.527h8.558v32.43h-8.558Z" transform="translate(10.676 2.86)" fill="#fff"/>
      <path id="Trazado_3973" data-name="Trazado 3973" d="M176.773,88.5a21.271,21.271,0,0,0,9.24,2.234c4.65,0,8.928-1.427,8.928-6.451V82.8a12.064,12.064,0,0,1-9.487,4.153c-9.364,0-15.5-7.005-15.5-16.99s6.574-17.053,15.813-17.053a12.379,12.379,0,0,1,9.674,4.217v-3.41H203.5V82.053c0,12.091-7.877,16-17.425,16a26.127,26.127,0,0,1-11.906-2.977Zm10.045-28.029c-4.836,0-8.248,3.722-8.248,9.426s3.474,9.488,8.31,9.488c4.961,0,8.31-3.721,8.31-9.488,0-5.519-3.349-9.426-8.372-9.426" transform="translate(11.591 3.608)" fill="#fff"/>
      <path id="Trazado_3974" data-name="Trazado 3974" d="M221.184,52.908c10.045,0,15.751,6.7,15.751,17.3a18.359,18.359,0,0,1-.063,1.861H214.052c.186,4.34,3.659,7.44,8.435,7.44a9.474,9.474,0,0,0,7.875-3.968L236,79.82c-1.24,2.293-5.582,7.13-13.643,7.13-10.417,0-17.053-7.192-17.053-16.928,0-9.8,6.636-17.115,15.875-17.115m7.068,13.58a6.622,6.622,0,0,0-6.944-6.573c-4.029,0-6.635,2.853-7.007,6.573Z" transform="translate(14.003 3.608)" fill="#fff"/>
      <path id="Trazado_3975" data-name="Trazado 3975" d="M267.664,67.418V86.145h-8.556V66.426c0-3.6-2.481-5.829-5.4-5.829-3.535,0-5.767,2.6-5.767,6.078v19.47h-8.557V53.715h8.371V57.5a10.231,10.231,0,0,1,8.682-4.589c9.24,0,11.223,7.626,11.223,14.509" transform="translate(16.327 3.609)" fill="#fff"/>
      <path id="Trazado_3976" data-name="Trazado 3976" d="M286.153,52.908c10.044,0,15.75,6.7,15.75,17.3a18.359,18.359,0,0,1-.063,1.861H279.02c.187,4.34,3.659,7.44,8.435,7.44a9.474,9.474,0,0,0,7.875-3.968l5.643,4.279c-1.24,2.293-5.581,7.13-13.643,7.13-10.417,0-17.053-7.192-17.053-16.928,0-9.8,6.636-17.115,15.876-17.115m7.067,13.58a6.621,6.621,0,0,0-6.943-6.573c-4.03,0-6.636,2.853-7.008,6.573Z" transform="translate(18.433 3.608)" fill="#fff"/>
      <text id="Barrio_Abierto" data-name="Barrio Abierto" transform="translate(219.312 113.07)" fill="#fff" font-size="19" font-family="SegoeUI, Segoe UI"><tspan x="0" y="0">Barrio Abie</tspan><tspan y="0" letter-spacing="0.03em">r</tspan><tspan y="0">to</tspan></text>
    </g>
  </g>
</svg>
