<svg xmlns="http://www.w3.org/2000/svg" width="111.068" height="17.024" viewBox="0 0 111.068 17.024">
  <g id="Grupo_41714" data-name="Grupo 41714" transform="translate(-630.359 -83.443)">
    <g id="Grupo_41713" data-name="Grupo 41713" transform="translate(630.359 83.443)">
      <path id="Trazado_41418" data-name="Trazado 41418" d="M650.221,93.274l-.862-.355.894-.365a.37.37,0,0,0,.189-.322.383.383,0,0,0-.221-.338l-4.829-1.968-2.584-1.091.845-.345a.372.372,0,0,0,.188-.323.383.383,0,0,0-.22-.338l-6.268-2.551a.5.5,0,0,0-.471-.015l-6.332,2.582a.368.368,0,0,0-.189.322.381.381,0,0,0,.22.338l.87.354-.241.1,0,0-.657.271a.368.368,0,0,0-.189.322.381.381,0,0,0,.22.338l6.292,2.563.081.04.013,0,1.065.432-1.279.535h0l-6,2.459-.179.076a.37.37,0,0,0-.189.322.383.383,0,0,0,.221.338l.881.359-.256.091-.657.271a.371.371,0,0,0-.189.322.383.383,0,0,0,.221.338l6.268,2.551a.538.538,0,0,0,.261.068.423.423,0,0,0,.211-.052l6.332-2.582a.372.372,0,0,0,.189-.323.384.384,0,0,0-.221-.338l-.1-.041h0l-.766-.316,7.326-3,.147-.063a.37.37,0,0,0,.189-.322A.383.383,0,0,0,650.221,93.274ZM637.1,85.785l0,0,5.84,2.377L637.1,90.549l0,0-5.837-2.377Zm.017,6.148a.417.417,0,0,0,.2-.052l5.676-2.312.674.271.1.054.02-.005,5.753,2.341L643.7,94.614l-.005,0-6.579-2.676Zm.012,6.757,0,0-5.837-2.377,6.519-2.675,5.643,2.3a.522.522,0,0,0,.277.067Z" transform="translate(-630.359 -83.622)" fill="#9dba32"/>
      <g id="Grupo_41712" data-name="Grupo 41712" transform="translate(26.014)">
        <g id="Grupo_41711" data-name="Grupo 41711" transform="translate(9.205)">
          <path id="Trazado_41419" data-name="Trazado 41419" d="M712.35,93.5c0-3.446-2.058-6.086-5.969-6.086a6.468,6.468,0,0,0-6.6,6.64c0,4.216,3.076,6.654,7.029,6.654a9.7,9.7,0,0,0,5.027-1.482l-1.247-2.265a6.969,6.969,0,0,1-3.266.88c-2.075,0-3.4-.831-3.779-2.657h8.645A10.813,10.813,0,0,0,712.35,93.5Zm-8.758-.837a2.826,2.826,0,0,1,2.914-2.389,2.366,2.366,0,0,1,2.51,2.389Z" transform="translate(-672.601 -83.845)" fill="#0020ab"/>
          <path id="Trazado_41420" data-name="Trazado 41420" d="M724.747,87.415a5.894,5.894,0,0,0-5.141,3.08h-.088l-.3-2.774h-3.092V100.4h3.763v-6.6c1.1-2.275,2.712-3.091,4.282-3.091a6.083,6.083,0,0,1,1.488.164v-3.4A6.751,6.751,0,0,0,724.747,87.415Z" transform="translate(-674.255 -83.845)" fill="#0020ab"/>
          <path id="Trazado_41421" data-name="Trazado 41421" d="M737.68,87.415a5.9,5.9,0,0,0-5.141,3.08h-.087l-.3-2.774h-3.092V100.4h3.763v-6.6c1.1-2.275,2.712-3.091,4.283-3.091a6.094,6.094,0,0,1,1.488.164v-3.4A6.756,6.756,0,0,0,737.68,87.415Z" transform="translate(-675.563 -83.845)" fill="#0020ab"/>
          <path id="Trazado_41422" data-name="Trazado 41422" d="M677.54,87.772l0-.016h-8v12.681H673.3V92.772h0V90.978l.6,0,1.808-.01,0,0c.054,0,.1-.009.156-.009,1.374,0,1.86.75,1.86,2.438v7.039h3.763V92.914C681.492,89.786,680.273,87.857,677.54,87.772Z" transform="translate(-669.542 -83.879)" fill="#0020ab"/>
          <path id="Trazado_41423" data-name="Trazado 41423" d="M696.407,96.9a7.472,7.472,0,0,1-2.5.451c-1.85,0-2.665-.725-2.665-2.654V90.268h5.346V87.32h-5.346V83.443h-3.292l-.307,3.877.008-.026,0,.026-3.364.147v2.8h3.194v4.477c0,3.327,1.435,5.562,5.469,5.562a13.883,13.883,0,0,0,4.145-.686Z" transform="translate(-671.033 -83.443)" fill="#0020ab"/>
        </g>
        <path id="Trazado_41424" data-name="Trazado 41424" d="M659.3,90.7h1.637v9.732H664.7V87.756h-5.4Z" transform="translate(-659.301 -83.879)" fill="#0020ab"/>
        <path id="Trazado_41425" data-name="Trazado 41425" d="M662.1,83.465a.219.219,0,0,0-.192,0l-2.569,1.285a.058.058,0,0,0,0,.107l.558.28.666.333,1.345.672a.213.213,0,0,0,.192,0l1.344-.672.666-.333.558-.28a.058.058,0,0,0,0-.107Z" transform="translate(-659.301 -83.443)" fill="#0020ab"/>
        <path id="Trazado_41426" data-name="Trazado 41426" d="M750.945,88.946a5.153,5.153,0,0,0-3.423-1.545,29.381,29.381,0,0,0-4.229-.053,16.474,16.474,0,0,0-1.862.2V88.2l-.018,1.9v.132l0,.141-.005.61s.094-.038.255-.093a9.573,9.573,0,0,1,1.609-.381l.015,0c.111-.013.235-.026.359-.038.165-.016.341-.031.529-.042l.117-.009c.287-.016.609-.025.953-.031a6.729,6.729,0,0,1,1.766.218c.031.01.062.022.093.032a2.669,2.669,0,0,1,.306.122,3.058,3.058,0,0,1,.5.286c.032.022.062.048.094.071a2.554,2.554,0,0,1,.224.194,3.05,3.05,0,0,1,.489.638c0,.008.009.014.013.022a4.368,4.368,0,0,1,.3,1.047l-4.339.058h-3.241l-.513-.012h-.093a7.4,7.4,0,0,0-.391,3.079,6.546,6.546,0,0,0,.129.835,5.278,5.278,0,0,0,.171.643c.008.022.01.044.018.067l.009.019a4.691,4.691,0,0,0,.315.69c.059.111.122.217.188.318.031.048.066.093.1.139a4.5,4.5,0,0,0,1.755,1.489,3.481,3.481,0,0,0,.333.155l.061.023a4.667,4.667,0,0,0,1.682.331h.078l.073,0c.075,0,.171-.005.294-.013s.252-.019.378-.034l.049-.007c.114-.013.227-.034.345-.054.021,0,.042-.005.064-.01.105-.019.212-.042.325-.067l.067-.014a.252.252,0,0,0,.028-.009l.036-.01a5.788,5.788,0,0,0,1.25-.446,5.026,5.026,0,0,0,1.074-.819l-.012.667-.008.463v.1l3.3-.008V93.342A5.671,5.671,0,0,0,750.945,88.946ZM748.8,96.014c-.011.028-.021.057-.032.084a2.708,2.708,0,0,1-2.382,1.779c-.1.008-.2.022-.307.022a2.879,2.879,0,0,1-1.737-.443,2.1,2.1,0,0,1-.358-.373,3.066,3.066,0,0,1-.557-1.513h.5l1.189-.021,3.689-.04h.133A1.751,1.751,0,0,1,748.8,96.014Z" transform="translate(-667.507 -83.833)" fill="#0020ab"/>
      </g>
    </g>
  </g>
</svg>
