<svg xmlns="http://www.w3.org/2000/svg" width="79.502" height="73.385" viewBox="0 0 79.502 73.385">
  <g id="Grupo_10672" data-name="Grupo 10672" transform="translate(-48 -222)">
    <path id="Trazado_5006" data-name="Trazado 5006" d="M52.3,259.037v36.349H69.914v-22.91H82.678v22.91H123.2V259.036a12,12,0,0,0,4.3-9.205V239.026L116.954,222H58.864L48,239v10.826a12,12,0,0,0,4.3,9.206ZM71.23,227.564l-4.745,12.325v9.943a6.46,6.46,0,0,1-12.921,0v-9.2l8.348-13.067Zm13.74,0v22.268a6.46,6.46,0,0,1-12.921,0v-8.909l5.143-13.358h7.778Zm13.341,0,5.143,13.359v8.909a6.46,6.46,0,0,1-12.921,0V227.564Zm15.546,0,8.082,13.046v9.221a6.46,6.46,0,0,1-12.921,0v-9.943l-4.745-12.324h9.584Zm3.784,62.258h-29.4v-22.91H64.35v22.91H57.862V261.66a12.019,12.019,0,0,0,11.4-4.145,12.01,12.01,0,0,0,18.485,0,12.01,12.01,0,0,0,18.485,0,12.019,12.019,0,0,0,11.4,4.145Zm0,0" fill="#06e2ff"/>
  </g>
</svg>
