<svg xmlns="http://www.w3.org/2000/svg" width="60.839" height="75.877" viewBox="0 0 60.839 75.877">
  <path id="Trazado_5072" data-name="Trazado 5072" d="M146.337,434.538a12.191,12.191,0,0,0-3.663.56,15.825,15.825,0,0,0-4.813-6.051,16.819,16.819,0,0,0-7.92-3.275v-18.1c3.311-.208,9.26-1.153,13.366-5.068,5.837-5.566,5.379-14.691,5.356-15.077a2.279,2.279,0,0,0-2.2-2.1c-.4-.022-9.973-.458-15.809,5.108A14.5,14.5,0,0,0,129,392.419a20.565,20.565,0,0,0-5.466-9.8c-6.971-6.648-18.443-6.126-18.928-6.1a2.278,2.278,0,0,0-2.2,2.1c-.027.462-.575,11.4,6.4,18.05,5.107,4.87,12.628,5.892,16.477,6.08v23.026a16.826,16.826,0,0,0-7.92,3.274,15.821,15.821,0,0,0-4.813,6.051,12.191,12.191,0,0,0-3.663-.56,11.445,11.445,0,0,0-11.693,11.152v4.465a2.279,2.279,0,0,0,2.331,2.223H155.7a2.279,2.279,0,0,0,2.331-2.223v-4.465a11.446,11.446,0,0,0-11.693-11.152Zm7.032,13.393H101.853v-2.242a6.883,6.883,0,0,1,7.032-6.706,7.253,7.253,0,0,1,3.789,1.059,2.431,2.431,0,0,0,2.136.189,2.257,2.257,0,0,0,1.394-1.555,11.858,11.858,0,0,1,22.815,0,2.254,2.254,0,0,0,1.393,1.555,2.431,2.431,0,0,0,2.136-.189,7.254,7.254,0,0,1,3.79-1.059,6.883,6.883,0,0,1,7.032,6.706Zm-33.133-62.169c3.873,3.693,4.791,9.441,4.994,12.528-3.233-.188-9.24-1.057-13.132-4.768-3.873-3.693-4.79-9.44-4.993-12.527,3.233.188,9.239,1.056,13.131,4.767Zm13.716,7.919c2.886-2.752,7.31-3.532,9.978-3.744-.229,2.551-1.052,6.788-3.92,9.522-2.887,2.753-7.311,3.533-9.979,3.745.229-2.552,1.053-6.789,3.921-9.523Zm0,0" transform="translate(-97.191 -376.5)" fill="#04fdb5"/>
</svg>
