<svg xmlns="http://www.w3.org/2000/svg" width="37.554" height="39.201" viewBox="0 0 37.554 39.201">
  <path id="Trazado_46053" data-name="Trazado 46053" d="M793.882-846.316c-10.354,0-18.777,8.793-18.777,19.6s8.423,19.6,18.777,19.6,18.777-8.792,18.777-19.6S804.236-846.316,793.882-846.316Zm0,37.025a16.593,16.593,0,0,1-14.5-8.8,1.016,1.016,0,0,0,.467-.23l5.083-4.466a1.016,1.016,0,0,1,1.482.144l3.106,3.962a1.016,1.016,0,0,0,1.488.139l8.68-7.73,1.313,1.611a.522.522,0,0,0,.9-.174l1.358-3.981,1.358-3.981a.546.546,0,0,0-.6-.731l-3.981.763-3.982.763a.561.561,0,0,0-.308.9l1.232,1.51-5.445,4.85a1.017,1.017,0,0,1-1.488-.139l-3.088-3.939a1.016,1.016,0,0,0-1.482-.144l-7.719,6.781a18.1,18.1,0,0,1-.578-4.536c0-9.608,7.488-17.424,16.693-17.424s16.692,7.816,16.692,17.424S803.086-809.291,793.882-809.291Z" transform="translate(-775.105 846.316)" fill="#0020ab"/>
</svg>
