<svg xmlns="http://www.w3.org/2000/svg" width="28.977" height="34.745" viewBox="0 0 28.977 34.745">
  <path id="Trazado_46054" data-name="Trazado 46054" d="M667.376-827.481a14.045,14.045,0,0,0,10.23-13.5A14.038,14.038,0,0,0,663.583-855a14.038,14.038,0,0,0-14.022,14.022,14.044,14.044,0,0,0,9.619,13.31,19.46,19.46,0,0,0-10.205,5.4,1.18,1.18,0,0,0,0,1.668,1.179,1.179,0,0,0,1.667,0,17.137,17.137,0,0,1,12.2-5.053,17.136,17.136,0,0,1,12.2,5.053,1.176,1.176,0,0,0,.833.345,1.175,1.175,0,0,0,.833-.345,1.178,1.178,0,0,0,0-1.668A19.467,19.467,0,0,0,667.376-827.481Zm-15.458-13.5a11.678,11.678,0,0,1,11.665-11.665,11.678,11.678,0,0,1,11.665,11.665,11.678,11.678,0,0,1-11.665,11.664A11.678,11.678,0,0,1,651.919-840.978Z" transform="translate(-648.629 855)" fill="#0020ab"/>
</svg>
