<svg id="User_icon" data-name="User icon" xmlns="http://www.w3.org/2000/svg" width="26" height="26" viewBox="0 0 26 26">
  <path id="Trazado_41153" data-name="Trazado 41153" d="M0,0H26V26H0Z" fill="none"/>
  <path id="Trazado_41154" data-name="Trazado 41154" d="M4,22.243c0-4.469,4.05-8.093,9.045-8.093s9.045,3.623,9.045,8.093H19.829c0-3.352-3.037-6.069-6.784-6.069s-6.784,2.717-6.784,6.069Zm9.045-9.1c-3.748,0-6.784-2.716-6.784-6.069S9.3,1,13.045,1s6.784,2.716,6.784,6.069S16.793,13.139,13.045,13.139Zm0-2.023a4.3,4.3,0,0,0,4.522-4.046,4.3,4.3,0,0,0-4.522-4.046A4.3,4.3,0,0,0,8.522,7.069,4.3,4.3,0,0,0,13.045,11.116Z" transform="translate(0 1)" fill="#003987"/>
</svg>
