<svg xmlns="http://www.w3.org/2000/svg" width="27.327" height="27.327" viewBox="0 0 27.327 27.327">
  <path id="Trazado_5076" data-name="Trazado 5076" d="M374.527,364.7v-1.19a.4.4,0,0,0-.8,0v1.19h-3.843v-3.564a.974.974,0,0,0-.973-.973h-1.759V356.32h3.383a3.2,3.2,0,0,1,3.192,3.192v2.13a.4.4,0,0,0,.8,0v-2.13a4,4,0,0,0-3.992-3.992H367.05a2,2,0,0,0-1.9-1.374h-1.327V352.63a1.2,1.2,0,0,0,1.116-.927h4.011a1.4,1.4,0,0,0,1.388-1.388,1.389,1.389,0,0,0-1.388-1.388h-4.011a1.2,1.2,0,0,0-1.169-.928H361.16a1.2,1.2,0,0,0-1.169.928h-4.011a1.388,1.388,0,0,0,0,2.775h4.011a1.2,1.2,0,0,0,1.116.927v1.516h-1.327a2,2,0,0,0-1.9,1.374H354.87a1.2,1.2,0,0,0-2.264,0H348.4a.4.4,0,0,0,0,.8h4.136v3.843H348.4a.4.4,0,1,0,0,.8h4.205a1.2,1.2,0,0,0,2.264,0h3.009a2,2,0,0,0,1.9,1.374h.677a.4.4,0,1,0,0-.8h-.677a1.2,1.2,0,0,1-1.186-1.016v0c.016-.073-.016-4.41,0-4.55v0a1.2,1.2,0,0,1,1.187-1.017h5.371a1.2,1.2,0,0,1,1.187,1.017v0c.062.533.054,4.084,0,4.55v0a1.2,1.2,0,0,1-1.186,1.016h-2.826a.4.4,0,0,0,0,.8h2.826a2,2,0,0,0,1.9-1.374h1.861a.173.173,0,0,1,.172.172V364.7a.808.808,0,0,0-.8.807v.788a.808.808,0,0,0,.807.807h5.431a.808.808,0,0,0,.807-.807v-.788a.808.808,0,0,0-.8-.807Zm-9.557-14.971h3.98a.587.587,0,1,1,0,1.174h-3.98Zm-5.01,1.174h-3.98a.587.587,0,1,1,0-1.174h3.98Zm-5.821,9.661a.4.4,0,0,1-.8,0V355.92a.4.4,0,1,1,.8,0Zm3.639-.4h-2.839V356.32h2.839Zm5.244-6.017h-1.115v-1.515h1.115Zm-1.862-2.315a.4.4,0,0,1-.4-.4V349.2a.4.4,0,0,1,.4-.4h2.609a.4.4,0,0,1,.4.4v2.229a.4.4,0,0,1-.4.4Zm13.367,14.464a.006.006,0,0,1-.006.006h-5.431a.006.006,0,0,1-.006-.006v-.788a.006.006,0,0,1,.006-.006h5.431a.006.006,0,0,1,.006.006Zm-2.328,2.192a.562.562,0,0,0-.788,0c-.756.747-2.514,2.625-2.514,3.935a2.907,2.907,0,0,0,5.815,0c0-1.31-1.758-3.188-2.514-3.934Zm-.394,6.04a2.109,2.109,0,0,1-2.107-2.106c0-.5.556-1.625,2.107-3.2,1.551,1.571,2.107,2.7,2.107,3.2a2.109,2.109,0,0,1-2.107,2.106Zm0,0" transform="translate(-348 -348)" fill="#0150f4"/>
</svg>
